<svg xmlns="http://www.w3.org/2000/svg" id="b8df49b2-597d-4d21-a316-8964ef4a2381" data-name="a1a47b23-ae73-4b09-8b66-026e0f47dfe0" width="265.9" height="99.8" viewBox="0 0 265.9 99.8"><g><path d="M50.6,3H14.7A11.65,11.65,0,0,0,3,14.7V85.1A11.65,11.65,0,0,0,14.7,96.8H50.6A11.65,11.65,0,0,0,62.3,85.1V14.7A11.71,11.71,0,0,0,50.6,3" fill="#264946"></path><path d="M50.6,0H14.7A14.72,14.72,0,0,0,0,14.7V85.1A14.72,14.72,0,0,0,14.7,99.8H50.6A14.72,14.72,0,0,0,65.3,85.1V14.7A14.79,14.79,0,0,0,50.6,0M62.3,85.1A11.65,11.65,0,0,1,50.6,96.8H14.7A11.71,11.71,0,0,1,3,85.1V14.7A11.65,11.65,0,0,1,14.7,3H50.6A11.71,11.71,0,0,1,62.3,14.7Z" fill="#edb140"></path><path d="M14.7,5.7H50.6a9,9,0,0,1,9,9V85.1a9,9,0,0,1-9,9H14.7a9,9,0,0,1-9-9V14.7A9,9,0,0,1,14.7,5.7Z" fill="#fff"></path><path d="M24.8,40.8a.74.74,0,0,1-.4-.8c.1-.3.2-.7.3-1a1.7,1.7,0,0,0,0-1c-.1-.1-.2-.3-.1-.4s.3,0,.4,0a1.15,1.15,0,0,0,1.4-.5.62.62,0,0,0-.1-.7.6.6,0,0,0-.4-.1,1.21,1.21,0,0,1-.5-.5.48.48,0,0,0-.6-.2c-.1,0-.1-.2,0-.2a.35.35,0,0,0,.2-.1c.3-.2.3-.5.3-.9s-.1-.6-.3-.7a.44.44,0,0,0-.5.1,2.19,2.19,0,0,0-.5.3c-.2.1-.2.3-.2.5s.2.4.2.6-.2.3-.4.3-.4-.1-.4-.3-.2-.5-.3-.7a1.31,1.31,0,0,0-1.2-.3.55.55,0,0,0-.5.2.45.45,0,0,0,0,.5.76.76,0,0,1,.2.4c0,.2-.1.5,0,.7s.3.2.4.3a.9.9,0,0,1,.5.1c.2.1.3.2.2.4a.48.48,0,0,1-.6.2,1.27,1.27,0,0,0-.6-.1c0,.2-.2.3-.3.2s-.3-.1-.4-.1a.6.6,0,0,0-.4.1.49.49,0,0,0,.1.7c.2.2.4.4.4.6v.2a.66.66,0,0,0,.4.5,1.85,1.85,0,0,1,.7,1.2l.2,1.5,1.8.4,1.5-.1Z" fill="#edb140" fill-rule="evenodd"></path><path d="M23.7,42.4h0L21.8,42a.22.22,0,0,1-.2-.2l-.2-1.5a1.7,1.7,0,0,0-.6-1h-.1a1.28,1.28,0,0,1-.5-.7v-.3c0-.1,0-.2-.2-.3v-.1a.91.91,0,0,1-.3-.7.52.52,0,0,1,.2-.4.62.62,0,0,1,.7-.1h.1a.35.35,0,0,1,.2.1h0a.22.22,0,0,1,.2-.2.85.85,0,0,1,.7,0h.4l-.1-.1c-.1,0-.2-.1-.3-.1h-.2A.68.68,0,0,1,21,36a1.27,1.27,0,0,1-.1-.6v-.2a.35.35,0,0,0-.1-.2.35.35,0,0,1-.1-.2.85.85,0,0,1,0-.7.91.91,0,0,1,.7-.3,1.69,1.69,0,0,1,1.4.4.76.76,0,0,1,.2.5.35.35,0,0,0,.1.2.22.22,0,0,0,.2.2h.1c0-.1,0-.1-.1-.2a.37.37,0,0,1-.1-.3.67.67,0,0,1,.3-.8.86.86,0,0,1,.6-.3,1.7,1.7,0,0,1,.7-.1,1.05,1.05,0,0,1,.5.9,1,1,0,0,1-.3,1c.1.1.2.1.3.2l.1.1.3.3h.1c.1,0,.3.1.4.1a.77.77,0,0,1,.1,1,1.43,1.43,0,0,1-1.7.6h0a2,2,0,0,1,.1,1.3l-.1.3a1.42,1.42,0,0,0-.2.6c0,.2,0,.5.2.6s.1.1.2.2l.3,1.4v.2c0,.1-.1.1-.2.1l-1.2.1Zm-1.6-.9,1.6.3,1.1-.1-.2-.8a1.43,1.43,0,0,1-.5-1.1,2.35,2.35,0,0,1,.2-.8.35.35,0,0,1,.1-.2,1.1,1.1,0,0,0,0-.8h0a.85.85,0,0,1,0-.7c.2-.2.5-.1.7-.1a.82.82,0,0,0,1-.4c.1-.1.1-.3,0-.3h-.3a2.09,2.09,0,0,1-.6-.4l-.1-.1c-.1,0-.2-.1-.3,0h-.2c-.1-.1-.2-.2-.2-.3a.4.4,0,0,1,.2-.4c.1-.1.1-.1.2-.1h.1c.1-.1.1-.3.1-.6a.59.59,0,0,0-.2-.5.37.37,0,0,0-.3.1c-.2.1-.3.1-.5.2a.37.37,0,0,0-.1.3c0,.1,0,.1.1.2a.75.75,0,0,1,.1.5.52.52,0,0,1-.2.4.76.76,0,0,1-.5.2.68.68,0,0,1-.6-.4c-.1-.1-.1-.2-.2-.3s-.1-.2-.2-.3a1.16,1.16,0,0,0-1-.2h-.2V35l.1.1c.1.1.1.3.2.4v.7c0,.1.1.1.2.1h.1c.2,0,.3.1.5.1a.57.57,0,0,1,.4.7.81.81,0,0,1-.9.4h-.1l-.2-.1a.1.1,0,0,1-.1.1.76.76,0,0,1-.5.2.6.6,0,0,1-.4-.1h-.3c0,.1.1.2.1.3l.1.1a1,1,0,0,1,.4.8v.3s.1.2.2.2h.1a1.76,1.76,0,0,1,.9,1.3Z"></path><path d="M22.1,45l.1,1.1v.2c-.1.2-.4.2-.6.1s-.4-.3-.6-.4a.66.66,0,0,0-.6.1c-.2.1-.2.3-.2.5s.1.3,0,.4-.2.1-.4.1a3.72,3.72,0,0,0-1.8-.2.74.74,0,0,1-.8-.4.78.78,0,0,1,.2-.8c.1-.1.3-.2.2-.3s-.1-.1-.2-.1a2,2,0,0,1-1.1-.9c-.1-.2-.3-.4-.2-.6a.76.76,0,0,1,.5-.2,1,1,0,0,1,.9.1.76.76,0,0,1,.2.4.76.76,0,0,0,.4.2c.1,0,.1-.4,0-.5a7.6,7.6,0,0,1-.1-1.4,1.08,1.08,0,0,1,.9-.8Z" fill="#edb140" fill-rule="evenodd"></path><path d="M20,47.4h-.2c-.2,0-.4-.1-.6-.1a3.75,3.75,0,0,0-1.1-.1.92.92,0,0,1-1.1-.7,1,1,0,0,1,.4-1,2.94,2.94,0,0,1-1.2-1,1,1,0,0,1-.2-.9c.1-.2.4-.3.6-.4a1.09,1.09,0,0,1,1.1.2c.1.1.2.2.2.3a.1.1,0,0,0,.1.1h0v-.2a2.2,2.2,0,0,1-.2-1.4,1.16,1.16,0,0,1,1.1-1c.1,0,.1,0,.2.1l3.2,3.4a.35.35,0,0,1,.1.2l.1,1.1v.3c-.1.1-.2.3-.3.3a.66.66,0,0,1-.6-.1c-.1-.1-.2-.1-.2-.2s-.2-.1-.2-.2h-.3a.37.37,0,0,0-.1.3v.1a.66.66,0,0,1-.1.6A1.33,1.33,0,0,1,20,47.4Zm-1.5-.8a2.92,2.92,0,0,1,.9.2,4.33,4.33,0,0,1,.5.1H20v-.2a1.14,1.14,0,0,1,.3-.8.75.75,0,0,1,.8-.1,1.38,1.38,0,0,1,.4.3c.1,0,.1.1.2.1h.2v-.1l-.1-1-3-3.2a.82.82,0,0,0-.5.5,2.15,2.15,0,0,0,.2,1.1.72.72,0,0,1-.2.9.78.78,0,0,1-.8-.2c0-.1-.1-.1-.1-.2s-.1-.1-.1-.2a.63.63,0,0,0-.6,0,.49.49,0,0,0-.3.1c-.1.1,0,.1.2.3a1.59,1.59,0,0,0,1,.8.55.55,0,0,1,.5.3c.1.3-.2.5-.3.6h0c-.2.1-.2.3-.1.5a.37.37,0,0,0,.5.2Z"></path><path d="M18.9,39.9v-.7h.4a.56.56,0,0,0,.6-.5c.3.1.2.6.5.8.1,0,.2,0,.2.1s0,.2.1.2.1.1.2.1a1.14,1.14,0,0,1,.3.8.9.9,0,0,1-.1.5.81.81,0,0,1-.9.3c-.2,0-.3-.1-.5-.2a1.38,1.38,0,0,0-.4-.3q-.3-.15-.3-.3a2.2,2.2,0,0,1-.1-.8" fill="#264946" fill-rule="evenodd"></path><path d="M20.4,41.7h-.3a1.42,1.42,0,0,1-.6-.2c-.1-.1-.2-.1-.2-.2l-.1-.1h-.1a.32.32,0,0,1-.3-.3,3.4,3.4,0,0,1-.1-1v-.7l-.1-.2.3-.1h.5c.2,0,.3-.1.4-.3l.1-.3.3.1a.68.68,0,0,1,.4.6c0,.1,0,.2.1.2h0c.1,0,.2.1.3.2a.35.35,0,0,0,.1.2H21a1.16,1.16,0,0,1,.4,1,1.27,1.27,0,0,1-.1.6A1,1,0,0,1,20.4,41.7Zm-1.2-1.1h.1c.1,0,.1.1.2.1l.2.2.1.1c.1.1.2.1.4.1s.5,0,.6-.1v-.3c0-.2,0-.5-.1-.5h0c-.2-.1-.3-.2-.3-.4h0l-.1-.1a.55.55,0,0,1-.3-.5.86.86,0,0,1-.6.3h-.1v.4h0A1.48,1.48,0,0,0,19.2,40.6Z"></path><path d="M28.3,38.5c-.2,0-.3,0-.4.1s-.2.2-.1.4.1.1.1.2,0,.3-.2.3a.3.3,0,0,1-.4,0c-.1,0-.3-.1-.4,0s-.1.2-.1.4a.6.6,0,0,1,.1.4c0,.2-.2.3-.3.2s0-.3,0-.4c-.1-.3-.6-.2-.7-.5a.37.37,0,0,0-.1-.3c-.1-.1-.3,0-.5.1a1.5,1.5,0,0,0-.4,1.1.75.75,0,0,1-.1.5c-.1.1-.4,0-.6.1s-.2.3-.4.4-.5.1-.8.2a.1.1,0,0,0-.1.1V42a1.7,1.7,0,0,0,.1.7h-.1a6.12,6.12,0,0,0,.5,1.2c.1.1.1.3.2.4a2.19,2.19,0,0,0,.5.3,11.7,11.7,0,0,0,2,.5,2,2,0,0,0,1.1,0,1.21,1.21,0,0,0,.5-.5l.5-.6c0-.1.1-.1.2-.2s.3,0,.4-.1a.76.76,0,0,0,.2-.5,1.7,1.7,0,0,1,0-1c.1-.7,1-1.1.9-1.7a1.08,1.08,0,0,0-.3-.7c-.1-.3,0-.6-.1-.8a2.2,2.2,0,0,0-1.2-.5" fill="#264946" fill-rule="evenodd"></path><path d="M26.5,45.2a1.7,1.7,0,0,1-.7-.1c-.6-.2-1.3-.3-2-.5l-.6-.3c-.1-.1-.2-.3-.3-.4-.2-.4-.3-.8-.5-1.2l-.1-.7.2.1v-.3a.37.37,0,0,1,.1-.3c.1-.1.2-.2.3-.2s.3-.1.4-.1.3,0,.3-.1l.1-.1a1.38,1.38,0,0,1,.3-.4.3.3,0,0,1,.4,0h.1v-.2h0a1.66,1.66,0,0,1,.5-1.3.76.76,0,0,1,.5-.2c.1,0,.3.1.3.2a.37.37,0,0,1,.1.3v.1a.35.35,0,0,0,.2.1.35.35,0,0,1,.2.1.52.52,0,0,1,.2-.4.45.45,0,0,1,.5,0h.2a.1.1,0,0,0-.1-.1.52.52,0,0,1,.3-.7,1.42,1.42,0,0,1,.6-.2h0a1.38,1.38,0,0,1,1.2.5,1.27,1.27,0,0,1,.1.6v.3l.1.2a1.42,1.42,0,0,1,.2.6,1.85,1.85,0,0,1-.5,1.2,1.61,1.61,0,0,0-.4.7v.8a.91.91,0,0,1-.4.8c-.1,0-.2.1-.3.1h-.1l.2-.1-.5.6a2.65,2.65,0,0,1-.6.5C26.8,45.1,26.7,45.2,26.5,45.2ZM23.2,43a1.42,1.42,0,0,1,.2.6c0,.1.1.2.2.3a.76.76,0,0,0,.4.2,13.32,13.32,0,0,0,1.9.5,1.7,1.7,0,0,0,1,0,.78.78,0,0,0,.4-.4l.5-.6c.1-.1.2-.2.3-.2h.4v-.5a.85.85,0,0,1,0-.7,4.05,4.05,0,0,1,.5-.9,1.23,1.23,0,0,0,.4-.8.76.76,0,0,0-.2-.4c0-.1-.1-.1-.1-.2a.9.9,0,0,1-.1-.5v-.3a1.08,1.08,0,0,0-.8-.2h0a.37.37,0,0,0-.3.1v.1h0a.35.35,0,0,1,.1.2c.1.3-.1.5-.3.7a.64.64,0,0,1-.6,0H27v.2a.75.75,0,0,1,.1.5c0,.2-.2.3-.4.4s-.3,0-.4-.1a.6.6,0,0,1-.1-.4v-.1c-.1,0-.1-.1-.2-.1a.66.66,0,0,1-.5-.4v-.2h0l-.1.1a1.14,1.14,0,0,0-.3.8h0a1,1,0,0,1-.2.7.75.75,0,0,1-.5.1h-.1l-.1.1a.22.22,0,0,1-.2.2,1.45,1.45,0,0,1-.7.2H23a2,2,0,0,0,.1.7C23.1,42.5,23.2,43,23.2,43Z"></path><path d="M25,43.6a3.6,3.6,0,0,0-.8-1.2l-.4-.4c-.1,0-.2-.1-.3-.2a4.44,4.44,0,0,1-1.1-.8c-.2-.2-.3-.5-.5-.7a1.79,1.79,0,0,0-.7-.5c-.1,0-.1,0-.2.1a.52.52,0,0,0-.2.4v.5a.32.32,0,0,1-.3.3c-.1-.1-.3-.2-.3-.3s-.1-.3-.1-.4-.2-.1-.3-.2a1.7,1.7,0,0,0-.7-.1,1.42,1.42,0,0,1-.6-.2.37.37,0,0,1-.1-.3c-.1-.1-.2-.2-.3-.1l-.1.1a1.64,1.64,0,0,0,.2,1.2,7.46,7.46,0,0,1,.7,1.2.9.9,0,0,0,.1.5c.1.1.2.2.3.2a11.73,11.73,0,0,1,1.1.5,3.51,3.51,0,0,1,1.7,2.4c0,.1,0,.2.1.2s.1.1.2.2c.5.3,1.3,0,1.9.2.1.1.2.1.4.1s.2-.2.3-.4l.4-1.1a5.64,5.64,0,0,1-.4-1.2" fill="#264946" fill-rule="evenodd"></path><path d="M24.5,46.6a.37.37,0,0,1-.3-.1h-.9a1.72,1.72,0,0,1-1.2-.2l-.3-.3c0-.1-.1-.2-.1-.3h0a3.1,3.1,0,0,0-1.6-2.2l-.5-.2a2.09,2.09,0,0,1-.6-.4c-.1-.1-.3-.2-.4-.3a.6.6,0,0,1-.1-.4v-.1a1.61,1.61,0,0,0-.4-.7,2.53,2.53,0,0,1-.5-1.9c0-.1.1-.2.1-.3a.37.37,0,0,1,.3-.1.52.52,0,0,1,.4.2c0,.1.1.1.1.2v.1c0,.1.2.1.4.1h0c.3,0,.5.1.8.1a.52.52,0,0,1,.4.2.76.76,0,0,1,.2.5v-.3a.68.68,0,0,1,.4-.6H21a1.46,1.46,0,0,1,.9.6c.1.1.2.2.2.3a1.38,1.38,0,0,1,.3.4,2.09,2.09,0,0,0,.6.4c.2.1.3.2.5.3l.2.2h0l.3.3a8.34,8.34,0,0,1,.8,1.2l.1.1a3.08,3.08,0,0,1,.3,1.3v.1L25,46.1a1.21,1.21,0,0,1-.5.5Zm-.8-.6a1.27,1.27,0,0,1,.6.1h.2l.1-.2.4-1.1a2,2,0,0,0-.3-1.1l-.1-.1a4.13,4.13,0,0,0-.7-1.1l-.3-.2c-.1-.1-.2-.1-.3-.2s-.3-.2-.4-.3a1.79,1.79,0,0,1-.7-.5c-.1-.1-.2-.3-.3-.4l-.2-.3a1,1,0,0,0-.5-.4h-.1a.31.31,0,0,1-.1.2V41a.63.63,0,0,1-.6.5c-.3-.1-.5-.3-.5-.5v-.1c0-.1,0-.1-.1-.2s-.1-.1-.2-.1a1.48,1.48,0,0,0-.7-.1h0a1.14,1.14,0,0,1-.8-.3h0a1.45,1.45,0,0,0,.2.7c.1.1.2.3.3.4a1.61,1.61,0,0,1,.3.9v.4c0,.1.1.1.2.1l.6.3a1.69,1.69,0,0,0,.5.2,3.64,3.64,0,0,1,1.9,2.6h0v.1l.1.1a2.77,2.77,0,0,0,.9.1Z"></path><path d="M23.1,46.3a.64.64,0,0,0,0-.6v-.2c.1-.1.2,0,.3,0l.5.2h.3c.2-.1.3-.3.2-.4h0a.78.78,0,0,0-.4-.4.63.63,0,0,0,.5-.6.6.6,0,0,1,.1-.4.37.37,0,0,1,.6,0l.5.5a1.09,1.09,0,0,0,1.5,0l.1-.1a.22.22,0,0,1,.2.2c.4,1.1,1.2,2,1.6,3.1a1.48,1.48,0,0,1,.1.7c0,.2-.2.4-.5.5s-.5-.2-.8-.2h-.4c-.3,0-.4-.4-.7-.4a1.88,1.88,0,0,1,.2.8c0,.1-.1.2-.2.3a1,1,0,0,1-1,.4c-.4-.2-.5-.8-1-.9a1.8,1.8,0,0,0,.2-1c0-.1,0-.2-.1-.2a.45.45,0,0,0-.5,0h0c-.1.1-.2.4-.1.5-.4.1-.7-.3-1.1-.4-.2,0-.6,0-.6-.3a3.7,3.7,0,0,1,.5-1.1" fill="#264946" fill-rule="evenodd"></path><path d="M26.1,49.6a.37.37,0,0,1-.3-.1,1.7,1.7,0,0,1-.6-.6c-.1-.2-.2-.3-.4-.3l-.4-.1.2-.3c.1-.1.1-.2.1-.4l-.2.2a2.92,2.92,0,0,1-.9-.2c-.1-.1-.2-.1-.4-.2h-.1c-.2,0-.6,0-.6-.5a.71.71,0,0,1,.3-.6c.1-.1.1-.1.1-.2h0v-.5c-.1-.2.1-.5.3-.6h.4l.5.2h.1v-.1l-.3-.3-.5-.3.5-.2a.78.78,0,0,0,.4-.4h0a.9.9,0,0,1,.1-.5.52.52,0,0,1,.4-.2.73.73,0,0,1,.6.2l.3.3.2.2a1.42,1.42,0,0,0,.6.2,1.42,1.42,0,0,0,.6-.2c.1-.1.1-.1.2-.1s.4,0,.5.3a11.94,11.94,0,0,0,.8,1.6,10.93,10.93,0,0,1,.8,1.5,2.2,2.2,0,0,1,.1.8.85.85,0,0,1-.7.7c-.2,0-.3-.1-.5-.1a.35.35,0,0,1-.2-.1h-.4c-.1,0-.1,0-.2-.1a1.07,1.07,0,0,1-.2.6A2.84,2.84,0,0,1,26.1,49.6Zm-.9-1.3c.2.1.3.3.4.4s.2.3.3.3.5-.1.7-.3.1-.1.1-.2a.76.76,0,0,0-.2-.5l-.2-.4h.4a.86.86,0,0,1,.6.3l.2.2h.3a.9.9,0,0,1,.5.1.35.35,0,0,1,.2.1.22.22,0,0,0,.2-.2.75.75,0,0,0-.1-.5,10.09,10.09,0,0,0-.7-1.5,8,8,0,0,1-.8-1.6,1.14,1.14,0,0,1-.8.3,1.69,1.69,0,0,1-1-.3l-.2-.2c-.1-.1-.1-.2-.2-.2s-.1-.1-.2-.1h0v.3a.91.91,0,0,1-.3.7c.1.1.1.2.2.3a.64.64,0,0,1,0,.6,1.38,1.38,0,0,1-.4.3.6.6,0,0,1-.4-.1l-.4-.2a.85.85,0,0,1,0,.7h0c-.1.1-.1.2-.2.3l-.3.3h.3a.76.76,0,0,1,.5.2l.2.1a.52.52,0,0,1,.2-.4.76.76,0,0,1,.5-.2.52.52,0,0,1,.4.2.37.37,0,0,1,.1.3C25.4,47.7,25.3,48,25.2,48.3Zm-.4-.9h0a.31.31,0,0,0-.1.2l.1.3v-.5Z"></path><path d="M40.4,40.8a.74.74,0,0,0,.4-.8c-.1-.3-.2-.7-.3-1a1.7,1.7,0,0,1,0-1c.1-.1.2-.3.1-.4s-.3,0-.4,0a1.15,1.15,0,0,1-1.4-.5c-.1-.2-.2-.5.1-.7s.3-.1.4-.1a1.21,1.21,0,0,0,.5-.5.48.48,0,0,1,.6-.2c.1,0,.1-.2,0-.2a.35.35,0,0,1-.2-.1,1.8,1.8,0,0,1-.2-1,.78.78,0,0,1,.3-.7.75.75,0,0,1,.5.1,2.19,2.19,0,0,1,.5.3c.2.1.2.3.2.5s-.2.4-.2.6.2.3.4.3.4-.1.4-.3.2-.5.3-.7a1.31,1.31,0,0,1,1.2-.3.55.55,0,0,1,.5.2.45.45,0,0,1,0,.5.76.76,0,0,0-.2.4c0,.2.1.5,0,.7s-.3.2-.4.3a.75.75,0,0,0-.5.1c-.2.1-.3.2-.2.4a.45.45,0,0,0,.6.2,1.48,1.48,0,0,1,.7-.1c0,.2.2.3.3.2s.3-.1.4-.1a.3.3,0,0,1,.4,0,.49.49,0,0,1-.1.7c-.2.2-.4.4-.4.6v.2a.66.66,0,0,1-.4.5,1.85,1.85,0,0,0-.7,1.2l-.2,1.5-1.7.4H40.1Z" fill="#edb140" fill-rule="evenodd"></path><path d="M41.6,42.4h0l-1.5-.1c-.1,0-.2,0-.2-.1V42l.3-1.3c0-.1.1-.1.2-.2a.45.45,0,0,0,.2-.6,1.42,1.42,0,0,0-.2-.6c0-.1-.1-.2-.1-.3a1.28,1.28,0,0,1,0-1.2h0a1.43,1.43,0,0,1-1.7-.6.8.8,0,0,1,.2-1c.1-.1.2-.1.4-.1h.1l.3-.3.1-.1c.1-.1.2-.2.3-.2a1.69,1.69,0,0,1-.3-1,1.06,1.06,0,0,1,.5-.9.88.88,0,0,1,.7.1,3.33,3.33,0,0,1,.6.3.83.83,0,0,1,.3.8c0,.1-.1.2-.1.3s-.1.1-.1.2h.1c.1,0,.2-.1.2-.3a.35.35,0,0,1,.1-.2c.1-.2.1-.3.2-.5a1.49,1.49,0,0,1,1.4-.4,1.08,1.08,0,0,1,.7.3.85.85,0,0,1,0,.7l.1.1c0,.1-.1.1-.1.2v.2a1.27,1.27,0,0,1-.1.6.82.82,0,0,1-.6.4h-.2a.37.37,0,0,0-.3.1.1.1,0,0,0-.1.1h.3a.85.85,0,0,1,.7,0,.22.22,0,0,1,.2.2h0c.1,0,.2,0,.2-.1h.1a.62.62,0,0,1,.7.1.52.52,0,0,1,.2.4.91.91,0,0,1-.3.7L45,38c-.1.1-.2.2-.2.3v.3c0,.3-.2.5-.5.7h-.1a1.7,1.7,0,0,0-.6,1l-.2,1.5a.22.22,0,0,1-.2.2l-1.6.4Zm-1.2-.6,1.1.1,1.6-.3.2-1.3a2.19,2.19,0,0,1,.8-1.4h.1l.2-.2v-.3a1.23,1.23,0,0,1,.4-.8l.1-.1a.37.37,0,0,0,.1-.3h-.3a.6.6,0,0,1-.4.1c-.2,0-.3-.1-.5-.2l-.1-.1-.2.1h-.2a.7.7,0,0,1-.9-.4.57.57,0,0,1,.4-.7.75.75,0,0,1,.5-.1h.1c.1,0,.2-.1.3-.1v-.7a.76.76,0,0,1,.2-.4l.1-.1v-.2h-.2a1.16,1.16,0,0,0-1,.2c-.1.1-.1.2-.2.3s-.1.2-.2.3a.84.84,0,0,1-.7.4c-.2,0-.4,0-.5-.2A.52.52,0,0,1,41,35a.9.9,0,0,1,.1-.5c0-.1.1-.1.1-.2a.37.37,0,0,0-.1-.3.76.76,0,0,0-.5-.2c-.1,0-.2-.1-.3-.1s-.1.2-.2.5a.56.56,0,0,0,.1.6h.1a.35.35,0,0,1,.2.1.52.52,0,0,1,.2.4c0,.1-.1.2-.2.3h-.2c-.1,0-.2,0-.3.2l-.1.1a.92.92,0,0,1-.6.4h-.4v.3a.86.86,0,0,0,1,.4.62.62,0,0,1,.7.1.85.85,0,0,1,0,.7h0a1.1,1.1,0,0,0,0,.8l.1.2a1.88,1.88,0,0,1,.2.8,1.07,1.07,0,0,1-.5,1.1Z"></path><path d="M43.2,45l-.1,1.1v.2c.1.2.4.2.6.1s.3-.3.5-.4a.66.66,0,0,1,.6.1c.2.1.2.3.2.5s-.1.3,0,.4a.37.37,0,0,0,.3.1,3.72,3.72,0,0,1,1.8-.2.74.74,0,0,0,.8-.4.78.78,0,0,0-.2-.8c-.1-.1-.3-.2-.2-.3a.31.31,0,0,1,.2-.1,2,2,0,0,0,1.1-.9c.1-.2.3-.4.2-.6a.77.77,0,0,0-1.4.3.76.76,0,0,1-.4.2c-.1,0-.1-.4,0-.5a1.72,1.72,0,0,0,.2-1.2,1.08,1.08,0,0,0-.9-.8Z" fill="#edb140" fill-rule="evenodd"></path><path d="M45.2,47.4a.52.52,0,0,1-.4-.2,1.27,1.27,0,0,1-.1-.6v-.1a.37.37,0,0,0-.1-.3h-.3a.22.22,0,0,0-.2.2c-.1.1-.2.1-.2.2a.66.66,0,0,1-.6.1.32.32,0,0,1-.3-.3V45c0-.1,0-.1.1-.2l3.2-3.4a.35.35,0,0,1,.2-.1,1.19,1.19,0,0,1,1.2,1,2.3,2.3,0,0,1-.2,1.4v.2h0a.1.1,0,0,1,.1-.1c.1-.1.1-.2.2-.3a1.39,1.39,0,0,1,1.1-.2.68.68,0,0,1,.6.4,1,1,0,0,1-.2.9,2.94,2.94,0,0,1-1.2,1,1,1,0,0,1,.2,1.3,1.16,1.16,0,0,1-1,.4,2.08,2.08,0,0,0-1.1.1,1.27,1.27,0,0,1-.6.1Zm-.7-1.7a.76.76,0,0,1,.5.2,1.14,1.14,0,0,1,.3.8v.2h.1c.2,0,.3-.1.5-.1a2.88,2.88,0,0,1,1.3-.1c.2,0,.4,0,.5-.2a.37.37,0,0,0-.2-.5h0c-.1-.1-.4-.3-.3-.6s.2-.3.4-.3a2,2,0,0,0,1-.8c.2-.2.2-.3.2-.3a1,1,0,0,0-.3-.1c-.2,0-.5-.1-.6,0s-.1.1-.1.2l-.1.2a.54.54,0,0,1-.8.2.72.72,0,0,1-.2-.9,2,2,0,0,0,.2-1.1.47.47,0,0,0-.5-.5l-3,3.2-.1,1v.1h.2l.2-.1c.1-.1.3-.2.4-.3S44.4,45.8,44.5,45.7Z"></path><path d="M46.3,39.9v-.7h-.4a.56.56,0,0,1-.6-.5c-.3.1-.2.6-.5.8-.1,0-.2,0-.2.1s0,.2-.1.2-.1.1-.2.1a.78.78,0,0,0-.2.8.9.9,0,0,0,.1.5c.2.3.6.3.9.3s.3-.1.5-.2l.3-.3c.1-.1.3-.1.4-.2a1.35,1.35,0,0,0,0-.9" fill="#264946" fill-rule="evenodd"></path><path d="M44.8,41.7a1.09,1.09,0,0,1-.9-.4,1.27,1.27,0,0,1-.1-.6,1,1,0,0,1,.4-1h.1c0-.1,0-.2.1-.2s.2-.2.3-.2h0c0-.1.1-.1.1-.2a.82.82,0,0,1,.4-.6l.3-.1.1.3c0,.2.2.3.4.3h.4l.3.1-.1.3v.7h0a3.4,3.4,0,0,1-.1,1l-.3.3h-.1l-.1.1c-.1.1-.1.2-.2.2a1.42,1.42,0,0,1-.6.2Zm0-2c0,.1,0,.1-.1.2l-.2.2h0a.75.75,0,0,0-.1.5v.3c.1.2.4.2.6.1s.3-.1.4-.1a.1.1,0,0,0,.1-.1l.2-.2c.1,0,.2-.1.3-.1h.1v-.6h0v-.4H46a.71.71,0,0,1-.6-.3.85.85,0,0,1-.3.5Z"></path><path d="M37,38.5a.6.6,0,0,1,.4.1.52.52,0,0,1,.2.4c0,.1-.1.1-.1.2s0,.3.2.3a.3.3,0,0,0,.4,0c.1,0,.3-.1.4,0a.6.6,0,0,1,.1.4.6.6,0,0,0-.1.4c0,.2.2.3.3.2s0-.3,0-.4c.1-.3.6-.2.7-.5a.37.37,0,0,1,.1-.3c.1-.1.3,0,.5.1a1.5,1.5,0,0,1,.4,1.1.75.75,0,0,0,.1.5c.1.1.4,0,.6.1s.2.3.4.4.5.1.8.2a.1.1,0,0,1,.1.1V42a1.7,1.7,0,0,1-.1.7h.1a6.12,6.12,0,0,1-.5,1.2c-.1.1-.1.3-.2.4a2.19,2.19,0,0,1-.5.3,14.62,14.62,0,0,1-2,.5,1.31,1.31,0,0,1-1.7-.5l-.5-.6c0-.1-.1-.1-.2-.2s-.3,0-.4-.1a.76.76,0,0,1-.2-.5,1.7,1.7,0,0,0,0-1c-.1-.7-1-1.1-.9-1.7a1.08,1.08,0,0,1,.3-.7c.1-.3,0-.6.1-.8s.7-.3,1-.3" fill="#264946" fill-rule="evenodd"></path><path d="M38.7,45.2a1.27,1.27,0,0,1-.6-.1,1.47,1.47,0,0,1-.6-.5l-.5-.7-.1-.1h-.1c-.4,0-.7-.2-.7-.6v-1a2.51,2.51,0,0,0-.4-.7,1.66,1.66,0,0,1-.5-1.2,1.42,1.42,0,0,1,.2-.6l.1-.2v-.3a1.27,1.27,0,0,1,.1-.6,1.73,1.73,0,0,1,1.2-.5.73.73,0,0,1,.6.2.91.91,0,0,1,.3.7.1.1,0,0,1-.1.1h.3a.45.45,0,0,1,.5,0,.52.52,0,0,1,.2.4,15734929547254.75,15734929547254.75,0,0,1,.4-.2v-.1a.37.37,0,0,1,.1-.3c.1-.1.2-.2.3-.2a.76.76,0,0,1,.5.2,1.9,1.9,0,0,1,.5,1.3h0v.2h.5c.1.1.3.2.3.3l.1.1a.37.37,0,0,0,.3.1.6.6,0,0,1,.4.1c.1,0,.2.1.3.2a.37.37,0,0,1,.1.3v.3h.4l-.2.6a6.12,6.12,0,0,1-.5,1.2,1.38,1.38,0,0,1-.3.4.86.86,0,0,1-.6.3,14.62,14.62,0,0,1-2,.5C39.2,45.2,39,45.2,38.7,45.2ZM37,38.8a2.35,2.35,0,0,0-.8.2v.3a.75.75,0,0,1-.1.5L36,40c-.1.1-.1.3-.2.4a2,2,0,0,0,.4.8,4.05,4.05,0,0,1,.5.9.85.85,0,0,1,0,.7v.5h.4c.1.1.2.1.3.2l.5.6c.1.2.3.3.4.4a1.7,1.7,0,0,0,1,0,13.32,13.32,0,0,0,1.9-.5.76.76,0,0,0,.4-.2c.1-.1.1-.2.2-.3l.2-.6h0l.1-.5c0-.2.1-.4.1-.7H42a1.85,1.85,0,0,1-.7-.2c-.1-.1-.1-.2-.2-.2l-.1-.1h-.2a.75.75,0,0,1-.5-.1.84.84,0,0,1-.2-.7h0a1.14,1.14,0,0,0-.3-.8l-.1-.1h0v.2a1,1,0,0,1-.5.4.35.35,0,0,0-.2.1v.1c0,.2,0,.3-.1.4s-.3.2-.4.1-.3-.2-.3-.4a.9.9,0,0,1,.1-.5v-.2h-.2a.64.64,0,0,1-.6,0,.61.61,0,0,1-.3-.7c0-.1,0-.1.1-.2h0a.1.1,0,0,0-.1-.1.31.31,0,0,1-.2.1Z"></path><path d="M40.3,43.6a3.6,3.6,0,0,1,.8-1.2l.3-.3c.1-.1.2-.1.3-.2a4.44,4.44,0,0,0,1.1-.8c.2-.2.3-.5.5-.7A1,1,0,0,1,44,40h.2c.2,0,.2.2.2.4v.5a.32.32,0,0,0,.3.3c.1-.1.3-.2.3-.3a.52.52,0,0,1,.2-.4c.1-.1.2-.1.3-.2a1.7,1.7,0,0,1,.7-.1c.2,0,.5,0,.6-.2a.77.77,0,0,1,.2-.3c.1-.1.2-.2.3-.1v.1a1.64,1.64,0,0,1-.2,1.2,7.46,7.46,0,0,0-.7,1.2.9.9,0,0,1-.1.5c-.1.1-.2.2-.3.2-.3.2-.8.3-1.1.5a3.65,3.65,0,0,0-1.8,2.4c0,.1,0,.2-.1.2s-.1.1-.2.2c-.5.3-1.3,0-1.9.2-.1.1-.2.1-.4.1a1.38,1.38,0,0,1-.3-.4L40,44.9a2.77,2.77,0,0,1,.3-1.3" fill="#264946" fill-rule="evenodd"></path><path d="M40.8,46.6h-.2a1.21,1.21,0,0,1-.5-.5l-.5-1.2v-.1a2.77,2.77,0,0,1,.3-1.3l.1-.1a2.73,2.73,0,0,1,.9-1.2l.3-.3h0l.2-.2c.2-.1.3-.2.5-.3a2.09,2.09,0,0,0,.6-.4,1.38,1.38,0,0,0,.3-.4l.2-.3a1.46,1.46,0,0,1,.9-.6h.3a.82.82,0,0,1,.4.6v.3c0-.2.1-.3.2-.5a.76.76,0,0,1,.4-.2,2.2,2.2,0,0,1,.8-.1h0a.6.6,0,0,0,.4-.1v-.1c0-.1.1-.1.1-.2a.52.52,0,0,1,.4-.2.35.35,0,0,1,.4.4,2.57,2.57,0,0,1-.1,1.5c-.1.2-.2.3-.3.5a1.61,1.61,0,0,0-.4.7v.1a1,1,0,0,1-.5.8l-.6.3-.5.2a3.37,3.37,0,0,0-1.7,2.2.37.37,0,0,1-.1.3l-.3.3a2.54,2.54,0,0,1-1.2.2h-.9C41,46.6,40.9,46.6,40.8,46.6Zm-.5-1.8.4,1.1.1.2H41V46a1.7,1.7,0,0,1,1,0,2.77,2.77,0,0,0,.9-.1.1.1,0,0,0,.1-.1v-.1h0A3.52,3.52,0,0,1,45,43c.2-.1.3-.2.5-.2l.6-.3c.1,0,.1-.1.2-.1V42a1.62,1.62,0,0,1,.5-.9c.1-.1.2-.3.3-.4a1.85,1.85,0,0,0,.2-.7h0a1.14,1.14,0,0,1-.8.3h0c-.2,0-.4.1-.7.1-.1,0-.1,0-.2.1s-.1.1-.1.2v.1a.47.47,0,0,1-.5.5.56.56,0,0,1-.6-.5v-.5c0-.1,0-.1-.1-.2h-.1a1,1,0,0,0-.5.4c-.1.1-.1.2-.2.3s-.2.3-.3.4a3,3,0,0,1-.7.5,1.38,1.38,0,0,0-.4.3c-.1.1-.2.1-.3.2l-.3.2a4.13,4.13,0,0,0-.7,1.1l-.1.1A1.92,1.92,0,0,0,40.3,44.8Z"></path><path d="M42.1,46.3a.64.64,0,0,1,0-.6v-.2c-.1-.1-.2,0-.3,0l-.5.2H41a.37.37,0,0,1-.2-.5h0a.78.78,0,0,1,.4-.4.63.63,0,0,1-.5-.6.6.6,0,0,0-.1-.4c-.1-.2-.4-.2-.6,0l-.5.5a1.09,1.09,0,0,1-1.5,0,.1.1,0,0,0-.1-.1.22.22,0,0,0-.2.2c-.3,1.1-1.2,2-1.6,3.1a1.48,1.48,0,0,0-.1.7c0,.2.2.4.5.5s.5-.2.8-.2h.4c.3,0,.4-.4.7-.4a1.08,1.08,0,0,0-.2.8c0,.1.1.2.2.3a1,1,0,0,0,1,.4c.4-.2.5-.8,1-.9a1.8,1.8,0,0,1-.2-1c0-.1,0-.2.1-.2a.45.45,0,0,1,.5,0h0c.1.1.2.4.1.5.4.1.7-.3,1.1-.4.2,0,.6,0,.6-.3a1.91,1.91,0,0,0-.5-1" fill="#264946" fill-rule="evenodd"></path><path d="M39.2,49.6a1.1,1.1,0,0,1-1-.6.76.76,0,0,1-.2-.4v-.2c-.1,0-.1.1-.2.1h-.4c-.1,0-.2,0-.2.1a.9.9,0,0,1-.5.1c-.4,0-.6-.3-.7-.7a2,2,0,0,1,.1-.8,10.93,10.93,0,0,1,.8-1.5,8,8,0,0,0,.8-1.6c.1-.3.3-.4.5-.3s.1.1.2.1c.1.2.3.2.5.2a1.42,1.42,0,0,0,.6-.2l.2-.2.3-.3a1.42,1.42,0,0,1,.6-.2.52.52,0,0,1,.4.2.76.76,0,0,1,.2.4v.1a.43.43,0,0,0,.4.4l.5.2-.7.5-.3.3v.1h.1l.5-.2a.47.47,0,0,1,.6.1.6.6,0,0,1,.1.4v.5c0,.1.1.1.1.2a.86.86,0,0,1,.3.6c0,.5-.5.5-.7.5H42a.76.76,0,0,0-.4.2.78.78,0,0,1-.8.2l-.3.1c0,.1.1.3.1.4l.2.3-.4.1c-.1,0-.2.1-.4.3a1.21,1.21,0,0,1-.5.5Zm-.8-2h.4l-.2.4a1.42,1.42,0,0,0-.2.6.35.35,0,0,0,.1.2c.2.2.5.4.7.3s.3-.2.3-.3a.78.78,0,0,1,.4-.4,2.77,2.77,0,0,1-.1-.9.37.37,0,0,1,.1-.3.52.52,0,0,1,.4-.2c.2,0,.4,0,.5.2a.52.52,0,0,1,.2.4l.2-.1c.2-.1.3-.2.5-.2H42a.22.22,0,0,0-.2-.2c-.1-.1-.2-.2-.2-.3h0a.85.85,0,0,1,0-.7l-.5.2a.6.6,0,0,1-.4.1c-.2,0-.3-.1-.4-.3a.64.64,0,0,1,0-.6c0-.1.1-.2.2-.3a.91.91,0,0,1-.3-.7v-.3h0c-.1,0-.1,0-.2.1s-.2.1-.2.2l-.2.2a1.21,1.21,0,0,1-1,.3,1.14,1.14,0,0,1-.8-.3,7.46,7.46,0,0,1-.9,1.5,6.11,6.11,0,0,0-.7,1.4.9.9,0,0,0-.1.5.22.22,0,0,0,.2.2c.1,0,.2,0,.2-.1a.75.75,0,0,1,.5-.1h.3c.1,0,.1-.1.2-.2A1.48,1.48,0,0,1,38.4,47.6Zm2.1-.2h0v.5l.1-.3v-.2Z"></path><polygon points="33.8 35 33.8 36.2 31.6 36.2 31.6 35 29.2 35 29.2 42 36.2 42 36.2 35 33.8 35" fill="#a12724"></polygon><path d="M36.4,42.3H28.9V34.8h2.9V36h1.6V34.8h2.9v7.5Zm-7-.5h6.5V35.4H34v1.2H31.3V35.4H29.4Z"></path><rect x="31.3" y="37.2" width="2.8" height="0.2"></rect><path d="M36.9,38.9a.49.49,0,0,0-.6.3.37.37,0,0,0,.2.5l-.3.3v-.2a.5.5,0,0,0-1,0c0,.2.1.4.3.4,0,0-.5.2-.6-1.3.2,0,.3-.2.4-.3a.48.48,0,1,0-.7.3l-.3.6h0a.47.47,0,0,0-.5-.5h0a.47.47,0,0,0-.5.5.66.66,0,0,0,.4.5s-.3.2-.7-1.3c.1-.1.3-.2.3-.3a.44.44,0,0,0-.4-.6c-.3,0-.6.1-.6.4a.45.45,0,0,0,.3.6l-.3.9a.54.54,0,0,0-.5-.5.47.47,0,0,0-.5.5h0a2.51,2.51,0,0,1-.4-.7.45.45,0,0,0,.2-.6.52.52,0,0,0-.7-.3.55.55,0,0,0-.3.5c.1.2.2.3.4.3a3.55,3.55,0,0,1-.2,1v-.1a.47.47,0,0,0-.5-.5h0a.47.47,0,0,0-.5.5h0v.1a.78.78,0,0,1-.4-.4c.2-.1.2-.3.2-.5a.47.47,0,1,0-.9.3q0,.15.3.3l1,2.3H36l1-2.2c.1-.1.2-.2.2-.3s0-.4-.3-.5h0" fill="#edb140"></path><path d="M36,42.4H29.2a.22.22,0,0,1-.2-.2L28,40a.79.79,0,0,1,.9-1.3,1.38,1.38,0,0,1,.3.4v.2a.6.6,0,0,1,.4-.1c.2,0,.3,0,.4.1v-.1a.54.54,0,0,1-.3-.4,1,1,0,0,1,.4-1h.1a.66.66,0,0,1,.6.1,1,1,0,0,1,.4.5.88.88,0,0,1-.1.7h0a.77.77,0,0,1,1-.1l.1-.2a.78.78,0,0,1,.8-1.3h0a1,1,0,0,1,.5.4,1.27,1.27,0,0,1,.1.6.76.76,0,0,1-.2.4V39a.76.76,0,0,1,.5-.2.6.6,0,0,1,.4.1.45.45,0,0,1,0-.5.83.83,0,0,1,1-.5h0a.78.78,0,0,1,.5,1h0c0,.2-.2.3-.3.4v.1a.94.94,0,0,1,.9-.1v-.1a.78.78,0,0,1,1-.5h0a1,1,0,0,1,.5.4.64.64,0,0,1,0,.6c0,.2-.1.3-.3.4l-.9,2.2A2.44,2.44,0,0,0,36,42.4Zm-3.4-.6h3.2l.8-1.8-.3.3a.19.19,0,0,1-.3,0,.37.37,0,0,1-.1-.3v-.1c0-.1,0-.1-.1-.2a.35.35,0,0,0-.2-.1c-.1,0-.1,0-.2.1a.25.25,0,0,0,0,.4.2.2,0,1,1,0,.4.3.3,0,0,1-.4,0,1.36,1.36,0,0,1-.5-1.2c-.1.1-.1.3-.2.4a.37.37,0,0,1-.3.1c-.1,0-.2-.1-.2-.3h0c0-.1,0-.1-.1-.1a.35.35,0,0,0-.2-.1c-.1,0-.1,0-.2.1a.35.35,0,0,0-.1.2.22.22,0,0,0,.2.2c.1,0,.2.2.2.3a.1.1,0,0,1-.1.1.6.6,0,0,1-.4.1c-.2-.1-.5-.3-.7-1.3a6.37,6.37,0,0,0-.2.7c0,.1-.2.2-.3.2a.22.22,0,0,1-.2-.2.2.2,0,1,0-.4,0h0c0,.1-.1.2-.2.3s-.2,0-.2-.1-.2-.3-.3-.5a1.88,1.88,0,0,1-.2.8c-.1.1-.2.2-.3.1s-.2-.2-.2-.3h0a.22.22,0,0,0-.2-.2h0a.22.22,0,0,0-.2.2h0a.37.37,0,0,1-.1.3.19.19,0,0,1-.3,0c-.2-.1-.3-.3-.5-.4l.8,1.9Zm-4.2-2.6h0c-.2,0-.2.2-.2.3h0a.1.1,0,0,0,.1.1.1.1,0,0,1,.1.1h0c0-.1,0-.2.1-.2a.31.31,0,0,0,.1-.2c0-.1-.1-.1-.2-.1Zm8.3,0a.22.22,0,0,0-.2.2c0,.1,0,.2.1.2s.1.1.1.2h0a.1.1,0,0,1,.1-.1.1.1,0,0,0,.1-.1c.1-.2,0-.3-.2-.4Zm-2-.8a.22.22,0,0,0-.2.2c0,.1,0,.2.1.2l.1.1h.1c.1,0,.1-.1.2-.2s-.1-.2-.3-.3Zm-4.2,0h0c-.2,0-.3.2-.2.3h0c0,.1.1.1.2.2h.1l.1-.1a.31.31,0,0,0,.1-.2.1.1,0,0,0-.1-.1A.31.31,0,0,0,30.5,38.4Zm2.1-.3a.22.22,0,0,0-.2.2.35.35,0,0,0,.1.2.1.1,0,0,1,.1.1l.1-.1a.1.1,0,0,0,.1-.1v-.2c0-.1,0-.1-.2-.1Z"></path><path d="M19,71.5h.9V69.4c-.3,0-.6.1-.9.1Z"></path><path d="M46.3,71.5h-.9V69.4c.3,0,.6.1.9.1Z"></path><path d="M32.8,52.8h-9v8.6c.6,7.4,8,10.4,8.9,10.7h0c.9-.3,8.3-3.3,8.9-10.7V52.8Z" fill="#264946"></path><path d="M32.7,72.4h-.1c-.9-.4-8.5-3.4-9.1-11V52.5H41.9v8.9C41.3,69,33.7,72,32.8,72.3ZM24,61.4c.5,7.1,7.6,10,8.7,10.4,1-.4,8.1-3.3,8.7-10.4V53.1H24Z"></path><polygon points="32.8 53.5 24.4 53.5 24.4 58.5 27.1 57.7 29.9 58.5 32.3 57.8 32.6 57.7 33 57.8 35.4 58.5 38.2 57.7 40.9 58.5 40.9 53.5 32.8 53.5" fill="#a8a3a3"></polygon><path d="M41.2,58.8l-3-.8-2.8.8L32.6,58l-2.8.8L27.1,58l-3,.8V53.1h17ZM27.1,57.4l2.8.8,2.8-.8,2.8.8,2.8-.8,2.4.7V53.7h-16v4.4Z"></path><path d="M52.1,72.8h0v-.2l-.1-.2c-.1-.2-.2-.3-.2-.4a11.92,11.92,0,0,1-.8-2,.37.37,0,0,0-.1-.3c-.1-.1,0-.2,0-.3V69h0v-.2a1.42,1.42,0,0,0-.2-.6,2.9,2.9,0,0,0-.9-.9c-.2-.1-.3-.3-.5-.4l-.3-.2-.3-.2-.3-.1h0l.1-.1c.1-.1.2-.1.3-.2a.6.6,0,0,0,.1-.4v-.5h0l-.1-.1-.1-.1-.1-.1c-.1-.1-.2-.2-.2-.3a1.85,1.85,0,0,1-.2-.7v-.4c0-.1,0-.1.1-.2v-.4l-.1-.1v-.1l-.1-.2c-.1-.1-.2-.2-.3-.2a4.88,4.88,0,0,0-.7-.3,1.88,1.88,0,0,0-.8-.2h-.8a1.88,1.88,0,0,0-.8.2,1.79,1.79,0,0,0-.7.5,3.25,3.25,0,0,0-.7,1.7V65h0l.1.1a.31.31,0,0,1,.1.2,4.18,4.18,0,0,1,.4,1c.1.3.1.7.2,1v.9h0s-.1.1,0,.1,0,.1,0,.1l.1.1v.1l.1.1c.1.1.2.2.3.2a1.45,1.45,0,0,0,.7.2h2.2a1.14,1.14,0,0,1,.8.3,2.18,2.18,0,0,1,.5.4l.2.2.1.2.1.3-.1.1c-.2.2-.4.3-.6.5l-.5.5V70.4h-.2c-.1-.1-.3-.1-.4-.2a2.2,2.2,0,0,0-.8-.1,2.35,2.35,0,0,0-.8.2l-.2.1-.2.1-.2.1h0l-1.3-.3a4.85,4.85,0,0,0-1.7,0c-.3.1-.7.2-1,.3a1.38,1.38,0,0,0-.4.3,2.53,2.53,0,0,0-.5,1.9V73h0v.1h.9l.7.7.6.6.4.4a14.19,14.19,0,0,1-4,1.2,29.09,29.09,0,0,1-3.1.4c-1.1.1-2.2.1-3.4.1s-2.3,0-3.4-.1a27.69,27.69,0,0,1-3-.3,26.43,26.43,0,0,1-4-1.2l.4-.4.6-.6.7-.7h.9v-.5a2.3,2.3,0,0,0-.2-1.4c-.1-.2-.2-.3-.3-.5s-.3-.2-.4-.3a1.69,1.69,0,0,0-1-.3,4.85,4.85,0,0,0-1.7,0l-1.4.3h0l-.2-.1-.2-.1-.2-.1c-.3-.1-.5-.1-.8-.2a2.2,2.2,0,0,0-.8.1.76.76,0,0,0-.4.2h-.1v1.3l-.5-.3a2.65,2.65,0,0,1-.6-.5H16c0-.1.1-.2.1-.3l.1-.2a.22.22,0,0,1,.2-.2,1.76,1.76,0,0,1,.5-.4c.3-.1.5-.2.8-.3h2.2a1.42,1.42,0,0,0,.6-.2c.1-.1.2-.1.3-.2l.1-.1v-.1l.1-.1v-.2h0v-.9c0-.3.1-.7.1-1a4.18,4.18,0,0,1,.4-1,.35.35,0,0,1,.1-.2l.1-.1h0v-.8a3.63,3.63,0,0,0-.7-1.7,1.79,1.79,0,0,0-.7-.5,2.35,2.35,0,0,0-.8-.2h-.8a2.35,2.35,0,0,0-.8.2c-.2.1-.5.2-.7.3s-.2.2-.3.2l.1.1v.6c0,.1,0,.2.1.2v.4a1.45,1.45,0,0,1-.2.7c-.1.1-.1.2-.2.3l-.1.1-.1.1-.1.1h0v.5a1.38,1.38,0,0,0,.3.4c.1.1.2.2.3.2l.1.1h0l-.3.1-.3.2c-.1.1-.2.1-.3.2a3.92,3.92,0,0,0-1,.8c-.1.2-.3.3-.4.5a1.42,1.42,0,0,0-.2.6v.7a.37.37,0,0,1-.1.3.37.37,0,0,1-.1.3,11.92,11.92,0,0,1-.8,2c-.1.2-.1.3-.2.4l-.1.2-.1.1h0v.1a2.77,2.77,0,0,0,.1.9,2.4,2.4,0,0,0,.7,1.2,3.81,3.81,0,0,0,1.7.8h.1v.1c-.2.3-.4.5-.6.8L15,77l-.2.2h0l-.2.2.6.4.4.3.9.6.9.6.5.3.5.3A31.68,31.68,0,0,0,22.5,82a28.52,28.52,0,0,0,4.8,1.3,11.53,11.53,0,0,0,2.6.3c.4,0,.9.1,1.3.1H34a5.7,5.7,0,0,0,1.3-.1l2.6-.3A28.52,28.52,0,0,0,42.7,82,23.92,23.92,0,0,0,47,80l.5-.3.5-.3.9-.6.9-.6.4-.3.5-.4-.2-.2h0l-.2-.3-.3-.3a5.55,5.55,0,0,1-.6-.8l-.1-.1h.1a1.85,1.85,0,0,0,.7-.2,2.07,2.07,0,0,0,1-.6,2.58,2.58,0,0,0,.8-1.3,1.49,1.49,0,0,0,.2-.9" fill="#edb140"></path><path d="M20.9,10a1.79,1.79,0,0,1,.7.5l.3.6c0,.2.1.4.1.6a2.77,2.77,0,0,1-.3,1.3,1.28,1.28,0,0,1-1.3.7H18.7V9.9h1.7a4.33,4.33,0,0,0,.5.1m-1.5.6v2.6h.8a.76.76,0,0,0,.8-.6,1.7,1.7,0,0,0,.1-.7,1.49,1.49,0,0,0-.2-.9c-.2-.2-.5-.4-.7-.3Z"></path><path d="M23.6,9.9h.9l1.4,3.9H25l-.2-.8H23.4l-.3.8h-.9Zm0,2.5h1l-.5-1.5Z"></path><polygon points="26.4 9.9 27.2 9.9 27.2 13.1 29.2 13.1 29.2 13.9 26.4 13.9 26.4 9.9"></polygon><polygon points="32.6 10.6 30.5 10.6 30.5 11.5 32.4 11.5 32.4 12.1 30.5 12.1 30.5 13.1 32.7 13.1 32.7 13.9 29.8 13.9 29.8 9.9 32.6 9.9 32.6 10.6"></polygon><path d="M35.2,10.4a1.88,1.88,0,0,1,2.6.1l.1.1c.2.2.2.5.3.7h-.8a.52.52,0,0,0-.2-.4.62.62,0,0,0-.7-.2.75.75,0,0,0-.7.4,1.16,1.16,0,0,0-.2,1,1.69,1.69,0,0,0,.3,1,.91.91,0,0,0,.7.3.71.71,0,0,0,.6-.3.76.76,0,0,0,.2-.4h.8a3.13,3.13,0,0,1-.5,1,1.5,1.5,0,0,1-1.1.4,1.9,1.9,0,0,1-1.3-.5,2.69,2.69,0,0,1-.5-1.5,1.62,1.62,0,0,1,.4-1.7"></path><rect x="38.7" y="9.9" width="0.8" height="3.9"></rect><polygon points="43.1 9.9 43.1 10.6 41.9 10.6 41.9 13.9 41.1 13.9 41.1 10.6 40 10.6 40 9.9 43.1 9.9"></polygon><polygon points="45.8 9.9 46.7 9.9 45.4 12.4 45.4 13.9 44.6 13.9 44.6 12.4 43.3 9.9 44.2 9.9 45 11.6 45.8 9.9"></polygon><polygon points="13.4 16.1 14.3 16.1 13 20 12.2 20 10.9 16.1 11.7 16.1 12.6 19.1 13.4 16.1"></polygon><path d="M17.8,19.7a1.9,1.9,0,0,1-1.3.5,1.66,1.66,0,0,1-1.3-.5,2.43,2.43,0,0,1,0-3.2,1.9,1.9,0,0,1,1.3-.5,1.66,1.66,0,0,1,1.3.5,2.27,2.27,0,0,1,.6,1.6,2.45,2.45,0,0,1-.6,1.6m-.5-.6a1.82,1.82,0,0,0,0-2,1.23,1.23,0,0,0-.8-.4.91.91,0,0,0-.8.4,1.82,1.82,0,0,0,0,2,1.23,1.23,0,0,0,.8.4,2,2,0,0,0,.8-.4"></path><polygon points="19 16.1 19.8 16.1 19.8 19.3 21.8 19.3 21.8 20 19 20 19 16.1"></polygon><rect x="22.2" y="19.3" width="0.8" height="0.8"></rect><polygon points="25.3 16.1 28.1 16.1 28.1 16.8 26.1 16.8 26.1 17.7 27.9 17.7 27.9 18.4 26.1 18.4 26.1 20 25.3 20 25.3 16.1"></polygon><rect x="28.6" y="16.1" width="0.8" height="3.9"></rect><path d="M32.6,16.2c.1.1.3.1.4.3s.1.2.2.3a.6.6,0,0,1,.1.4,4.33,4.33,0,0,1-.1.5,1,1,0,0,1-.5.4,1.38,1.38,0,0,1,.4.3,1.27,1.27,0,0,1,.1.6v.7a.22.22,0,0,0,.2.2V20h-.9v-.9a.75.75,0,0,0-.1-.5.75.75,0,0,0-.5-.1H31V20h-.8V16.1H32c.2,0,.4.1.6.1m-1.6.6v1h.9a.6.6,0,0,0,.4-.1.4.4,0,0,0,.2-.4.76.76,0,0,0-.2-.5c-.1-.1-.2-.1-.4-.1H31Z"></path><polygon points="36.9 16.8 34.9 16.8 34.9 17.7 36.8 17.7 36.8 18.3 34.9 18.3 34.9 19.3 37 19.3 37 20 34.1 20 34.1 16.1 36.9 16.1 36.9 16.8"></polygon><path d="M41.5,16.2a1.79,1.79,0,0,1,.7.5l.3.6c0,.2.1.4.1.6a2.77,2.77,0,0,1-.3,1.3,1.28,1.28,0,0,1-1.3.7H39.3V16H41a.76.76,0,0,0,.5.2m-1.5.6v2.5h.8a.76.76,0,0,0,.8-.6,1.7,1.7,0,0,0,.1-.7,2.92,2.92,0,0,0-.2-.9.83.83,0,0,0-.8-.3Z"></path><polygon points="46 16.8 43.9 16.8 43.9 17.7 45.8 17.7 45.8 18.3 43.9 18.3 43.9 19.3 46.1 19.3 46.1 20 43.1 20 43.1 16.1 46 16.1 46 16.8"></polygon><path d="M49.3,18.4a1.69,1.69,0,0,1-1,.3h-.8v1.4h-.8V16.2h1.7a1.4,1.4,0,0,1,.9.3,1,1,0,0,1,.3.9,1,1,0,0,1-.3,1M48.7,17a.6.6,0,0,0-.4-.1h-.7V18h.7c.2,0,.3,0,.4-.1a.6.6,0,0,0,0-.9"></path><polygon points="53.2 16.1 53.2 16.8 52 16.8 52 20 51.2 20 51.2 16.8 50 16.8 50 16.1 53.2 16.1"></polygon><rect x="53" y="19.3" width="0.8" height="0.8"></rect><polygon points="12.1 86.1 14.9 86.1 14.9 86.8 12.9 86.8 12.9 87.7 14.6 87.7 14.6 88.4 12.9 88.4 12.9 90 12.1 90 12.1 86.1" fill="#264946"></polygon><rect x="15.4" y="86.1" width="0.8" height="3.9" fill="#264946"></rect><path d="M19.4,86.2c.1.1.3.1.4.3s.1.2.2.3.1.3.1.4-.1.4-.1.6a1,1,0,0,1-.5.4,1.38,1.38,0,0,1,.4.3,1.27,1.27,0,0,1,.1.6v.7a.35.35,0,0,0,.1.2h-.9v-.9a.9.9,0,0,0-.1-.5.75.75,0,0,0-.5-.1h-.8V90H17V86.1h1.9a.75.75,0,0,1,.5.1m-1.6.6v1h.9a.6.6,0,0,0,.4-.1c.2-.1.3-.3.2-.4a.76.76,0,0,0-.2-.5c-.1-.1-.2-.1-.4-.1Z" fill="#264946"></path><polygon points="23.7 86.8 21.7 86.8 21.7 87.6 23.5 87.6 23.5 88.3 21.7 88.3 21.7 89.3 23.8 89.3 23.8 90 20.9 90 20.9 86.1 23.7 86.1 23.7 86.8" fill="#264946"></polygon><path d="M26,88.4c.2-.2.3-.4.6-.5h.1a1.38,1.38,0,0,1-.3-.4.6.6,0,0,1-.1-.4.91.91,0,0,1,.3-.7.78.78,0,0,1,.8-.2,1.45,1.45,0,0,1,.7.2.86.86,0,0,1,.3.6,1.42,1.42,0,0,1-.2.6,1,1,0,0,1-.5.4l.6.7a.37.37,0,0,0,.1-.3v-.3h.7a1.85,1.85,0,0,1-.2.7,1.38,1.38,0,0,1-.3.4l.7.8h-.9l-.3-.3a1.38,1.38,0,0,1-.4.3,1.85,1.85,0,0,1-.7.2,1.4,1.4,0,0,1-.9-.3,1.14,1.14,0,0,1-.3-.8,1.45,1.45,0,0,1,.2-.7m.7.9a.62.62,0,0,0,.8.1c.1-.1.2-.1.3-.2l-.8-.9c-.1.1-.3.2-.4.3a.37.37,0,0,0-.1.3c.1.2.1.3.2.4m.4-2.1c.1.1.1.2.2.3.1-.1.2-.1.2-.2a.37.37,0,0,0,.1-.3.27.27,0,0,0-.3-.3H27V87c0,.1,0,.2.1.2" fill="#264946"></path><path d="M33.9,86.2c.1.1.3.1.4.3s.1.2.2.3.1.3.1.4-.1.4-.1.6a1,1,0,0,1-.5.4,1.38,1.38,0,0,1,.4.3,1.27,1.27,0,0,1,.1.6v.7a.22.22,0,0,0,.2.2h-.9v-.9a.9.9,0,0,0-.1-.5.75.75,0,0,0-.5-.1h-.8V90h-.8V86.1h1.9s.3,0,.4.1m-1.6.6v1h.9a.6.6,0,0,0,.4-.1c.2-.1.3-.3.2-.4a.76.76,0,0,0-.2-.5c-.1-.1-.2-.1-.4-.1Z" fill="#264946"></path><polygon points="38.2 86.8 36.1 86.8 36.1 87.6 38 87.6 38 88.3 36.1 88.3 36.1 89.3 38.3 89.3 38.3 90 35.3 90 35.3 86.1 38.2 86.1 38.2 86.8" fill="#264946"></polygon><path d="M39.5,88.8a.68.68,0,0,0,.7.7h.1a.9.9,0,0,0,.5-.1c.2,0,.4-.2.3-.4s-.1-.2-.2-.3a1.69,1.69,0,0,0-.5-.2l-.4-.2-.9-.3a.91.91,0,0,1-.4-.8,1.22,1.22,0,0,1,.4-.9,1.31,1.31,0,0,1,1.2-.3,2,2,0,0,1,1.1.3,1.23,1.23,0,0,1,.5,1h-.8a.55.55,0,0,0-.3-.5.9.9,0,0,0-.5-.1.75.75,0,0,0-.5.1c-.1.1-.2.2-.2.3s.1.3.2.3.3.1.5.2l.7.2a1.08,1.08,0,0,1,.7.3.83.83,0,0,1,.3.8,1.09,1.09,0,0,1-.4.9,1.31,1.31,0,0,1-1.2.3,2.38,2.38,0,0,1-1.2-.3,1.19,1.19,0,0,1-.5-.9Z" fill="#264946"></path><path d="M42.9,86.5a1.88,1.88,0,0,1,2.6.1.1.1,0,0,0,.1.1c.2.2.2.5.3.7H45a.52.52,0,0,0-.2-.4.91.91,0,0,0-.7-.3.75.75,0,0,0-.7.4,1.16,1.16,0,0,0-.2,1,1.69,1.69,0,0,0,.3,1,.91.91,0,0,0,.7.3.71.71,0,0,0,.6-.3.76.76,0,0,0,.2-.5h.8a3.13,3.13,0,0,1-.5,1,1.5,1.5,0,0,1-1.1.4,1.9,1.9,0,0,1-1.3-.5,2.41,2.41,0,0,1,0-3" fill="#264946"></path><path d="M46.5,86.1h.8v2.4a1.27,1.27,0,0,0,.1.6c.1.2.4.4.6.3a.6.6,0,0,0,.6-.3,1.27,1.27,0,0,0,.1-.6V86.1h.8v2.4a1.8,1.8,0,0,1-.2,1,1.88,1.88,0,0,1-2.6.2l-.2-.2a3.55,3.55,0,0,1-.2-1Z" fill="#264946"></path><polygon points="53.2 86.8 51.2 86.8 51.2 87.6 53.1 87.6 53.1 88.3 51.2 88.3 51.2 89.3 53.3 89.3 53.3 90 50.4 90 50.4 86.1 53.2 86.1 53.2 86.8" fill="#264946"></polygon><path d="M26.8,27.8v-.5h.5a.76.76,0,0,0,.4-.2.37.37,0,0,0,.1-.3v-.2h.6v3.8h-.8V27.8Z"></path><path d="M29.9,26.9a1.09,1.09,0,0,1,.9-.4,1.3,1.3,0,0,1,1.2.8,5.16,5.16,0,0,1,.2,1.1,5,5,0,0,1-.2,1.2,1.4,1.4,0,0,1-1.2.9,1.88,1.88,0,0,1-.8-.2,1.23,1.23,0,0,1-.4-.8h.8c0,.1.1.2.1.3a.37.37,0,0,0,.3.1c.2,0,.5-.2.5-.4a1.48,1.48,0,0,0,.1-.7l-.2.2a.9.9,0,0,1-.5.1A1.2,1.2,0,0,1,29.5,28v-.1a4.18,4.18,0,0,1,.4-1m1.3,1.6a.6.6,0,0,0,.3-.6.75.75,0,0,0-.1-.5.76.76,0,0,0-.4-.2.37.37,0,0,0-.3.1c-.2.1-.2.4-.2.6a.75.75,0,0,0,.1.5.76.76,0,0,0,.4.2c0-.1.1-.1.2-.1"></path><path d="M34.4,27.5c0-.1,0-.1-.1-.2a.52.52,0,0,0-.4-.2c-.2,0-.5.2-.5.4a1.48,1.48,0,0,0-.1.7c.1-.1.2-.2.3-.2a.6.6,0,0,1,.4-.1.91.91,0,0,1,.8.4,1.4,1.4,0,0,1,.3.9,1.93,1.93,0,0,1-.3,1,1.16,1.16,0,0,1-1,.4,1.25,1.25,0,0,1-1.1-.6,2.66,2.66,0,0,1-.3-1.2v-.7a1.14,1.14,0,0,1,.3-.8c.1-.2.3-.3.4-.5a1.42,1.42,0,0,1,.6-.2,1.61,1.61,0,0,1,.9.3.91.91,0,0,1,.3.7Zm-.9,2.2a.76.76,0,0,0,.4.2.52.52,0,0,0,.4-.2.75.75,0,0,0,.1-.5c0-.2,0-.4-.2-.5a.76.76,0,0,0-.4-.2.37.37,0,0,0-.3.1c-.2.1-.2.3-.2.6s.1.4.2.5"></path><path d="M38.3,27.2c-.2.2-.3.4-.5.6a4.05,4.05,0,0,0-.5.9l-.3.9a2.77,2.77,0,0,0-.1.9h-.8a3.77,3.77,0,0,1,.7-2.1,3.59,3.59,0,0,1,.7-1H35.6v-.7h2.7Z"></path><path d="M17.8,77.6a.66.66,0,0,1,.1-.6v-.1h0l.4.2h0v.1c0,.1-.1.2-.1.3a.35.35,0,0,0,.1.2h.2a.22.22,0,0,0,.2-.2c0-.1.1-.1,0-.2v-.2l-.1-.3c-.1-.1-.1-.3-.2-.4s-.1-.3-.1-.4.1-.3.1-.4a.82.82,0,0,1,1-.4.1.1,0,0,1,.1.1.66.66,0,0,1,.4.5.88.88,0,0,1-.1.7v.1h0l-.4-.2h0v-.1a.37.37,0,0,0,.1-.3c0-.2-.2-.3-.3-.2h0a.22.22,0,0,0-.2.2.19.19,0,0,0,0,.3.52.52,0,0,0,.2.4,1.69,1.69,0,0,1,.2.5c0,.1.1.2,0,.3a.6.6,0,0,1-.1.4.77.77,0,0,1-1.1.3,1.54,1.54,0,0,0-.4-.6" fill="#264946"></path><path d="M22.2,76.9h0l-.9-.4h0l-.3.8h0l.5.2h0l-.1.3h0l-.5-.2h0l-.4.8h0l.9.4h0l-.1.3h0L20,78.5h0l1.1-2.6h0l1.3.6h0l-.2.4h0" fill="#264946"></path><path d="M22.1,79.6a.85.85,0,0,1,0-.7l.5-1.4A1,1,0,0,1,23,77a.84.84,0,0,1,1.1.4.64.64,0,0,1,0,.6h0l-.4-.1v-.5a.22.22,0,0,0-.2-.2h-.3c-.1,0-.1.1-.2.2L22.6,79v.3c0,.1.1.1.2.2h.3c.1,0,.1-.1.2-.2v-.1h0l.4.2h0a1,1,0,0,1-.4.5.85.85,0,0,1-.7,0,1,1,0,0,1-.5-.4" fill="#264946"></path><path d="M24.4,80.3a1.48,1.48,0,0,1-.1-.7l.4-1.5a.66.66,0,0,1,.4-.5,1.48,1.48,0,0,1,.7-.1,1,1,0,0,1,.5.4,1.48,1.48,0,0,1,.1.7L26,80.1a1,1,0,0,1-.4.5,1.48,1.48,0,0,1-.7.1.66.66,0,0,1-.5-.4m.9,0c.1-.1.1-.2.2-.2l.4-1.5v-.3c0-.1-.1-.1-.2-.2h-.3l-.2.2-.4,1.5v.3c0,.1.1.1.2.2h.3" fill="#264946"></path><path d="M28.4,78.2h0l.4.1h0l-.5,3h0l-.5-.1m0,0-.3-2h0l-.3,1.9h0l-.5-.1h0l.5-3h0l.5.1h0l.3,2h0l.3-1.9h0" fill="#264946"></path><path d="M29.3,81.5h0l.2-3h0l.8.1a.86.86,0,0,1,.8.8v.1L31,80.8a.86.86,0,0,1-.8.8h-.1l-.8-.1h0m.6-.4h.3c.1,0,.2,0,.2-.1a.37.37,0,0,0,.1-.3l.1-1.4a.37.37,0,0,0-.1-.3c-.1-.1-.1-.1-.2-.1H30l-.1,2.2h0" fill="#264946"></path><path d="M34.5,78.5h0v.3h-.6l.1,2.8h-.5L33.4,79h-.5v-.3h0l1.7-.1h0" fill="#264946"></path><path d="M35.4,81.4a.71.71,0,0,1-.3-.6L35,79.2c0-.2,0-.5.2-.6a.82.82,0,0,1,1.2-.1.71.71,0,0,1,.3.6l.2,1.5a1,1,0,0,1-.2.7,1.19,1.19,0,0,1-1.3.1m.9-.5a.37.37,0,0,0,.1-.3L36.2,79c0-.1-.1-.2-.1-.3a.37.37,0,0,0-.3-.1.35.35,0,0,0-.2.1.37.37,0,0,0-.1.3l.2,1.6c0,.1.1.2.1.3a.31.31,0,0,0,.2.1c.2.1.3,0,.3-.1" fill="#264946"></path><path d="M39.5,77.7h0l.4-.1h0l.7,3h0l-.5.1H40L39,79h0l.5,1.8h0L39,81h0l-.7-3h0l.5-.1h.1L40,79.6h0l-.5-1.9h0" fill="#264946"></path><path d="M41.7,80.1a.66.66,0,0,1-.4-.5l-.5-1.4a.85.85,0,0,1,0-.7.66.66,0,0,1,.5-.4.85.85,0,0,1,.7,0,.66.66,0,0,1,.4.5l.5,1.4a.85.85,0,0,1,0,.7.66.66,0,0,1-.5.4.85.85,0,0,1-.7,0m.7-.6v-.3l-.5-1.5a.22.22,0,0,0-.2-.2h-.3a.22.22,0,0,0-.2.2V78l.5,1.5a.22.22,0,0,0,.2.2h.3c.1,0,.1-.1.2-.2" fill="#264946"></path><path d="M43.8,76.1h0l.4-.2h0l1.2,2.8h0l-.4.2V79l-1.4-1.5h0l.8,1.7h0l-.4.2h0l-1.2-2.8h0l.4-.2h.1l1.4,1.5h0l-.9-1.8h0" fill="#264946"></path><path d="M46.4,75.2h0l-.9.5h0l.4.8h0l.5-.3h0l.2.3h0l-.5.3h0l.4.8h0l.8-.5h0l.2.3h0l-1.3.7h0l-1.5-2.7h0l1.3-.7h0l.2.3h0" fill="#264946"></path><path d="M22.2,75.2l-.4-.4,1.9-2h.8a2.09,2.09,0,0,0-.4-1.7c-.7-.7-2.1-.8-4.1-.3l-.1-.5c2.2-.6,3.8-.4,4.6.4a2.63,2.63,0,0,1,.6,2.4v.2h-1Z"></path><path d="M16,76.1s-3.2-.4-3.1-3.3v-.1h0a15.06,15.06,0,0,0,1.4-3.5c0-.3-.1-1.8,3-3h-.1a3.55,3.55,0,0,1,1.1-1.6,1.21,1.21,0,0,1-.7-.7,1.1,1.1,0,0,1,0-.8h0a1.59,1.59,0,0,1,2-.6A2.15,2.15,0,0,1,21,64.4c-.1.6-.5,1.6-2.8,2-3.5,1.2-3.3,2.6-3.3,2.7v.1a9.79,9.79,0,0,1-1.4,3.7c-.1,2.4,2.5,2.7,2.6,2.7Zm2.2-12.9a.3.3,0,0,0,0,.4,1.56,1.56,0,0,0,.8.6l.5.1-.4.3a15.38,15.38,0,0,0-1.2,1.3H18c1.4-.2,2.3-.8,2.4-1.5a1.54,1.54,0,0,0-1-1.5A1,1,0,0,0,18.2,63.2Z"></path><path d="M17.2,72.2a3.41,3.41,0,0,1-2.1-1.8,2.8,2.8,0,0,1,.4-2.5l.5.3a2.36,2.36,0,0,0-.3,2,3.35,3.35,0,0,0,1.8,1.5Z"></path><path d="M16.1,71.1l-.5-.1c.7-1.9,2.1-1.8,3.3-1.8.9,0,1.5,0,1.8-.5a4.82,4.82,0,0,1,0-1.2,4.63,4.63,0,0,1,.8-2.5,3.14,3.14,0,0,0-.7-2.1,2.32,2.32,0,0,0-2-.6c-.3,0-1.3.3-1.5.7a1.94,1.94,0,0,1-.8,2.5,1.14,1.14,0,0,0,.7.8l-.2.5a1.5,1.5,0,0,1-1-1.4v-.1l.1-.1a1.47,1.47,0,0,0,.7-1.9.1.1,0,0,0-.1-.1v-.3c.3-.9,1.9-1.2,2-1.2a3.07,3.07,0,0,1,2.4.8A3.84,3.84,0,0,1,22,65v.2a4.87,4.87,0,0,0-.7,3.3l.1.1-.1.2c-.5.9-1.4.9-2.4.9S16.7,69.6,16.1,71.1Z"></path><path d="M32.6,77.2c-13.8,0-14.9-6-15-6.3l.5-.1a5.3,5.3,0,0,0,2.2,2.9c3.2,2.4,8.4,2.9,12.3,2.9s9.1-.5,12.3-2.9a5.81,5.81,0,0,0,2.2-2.9l.5.1C47.6,71.2,46.4,77.2,32.6,77.2Z"></path><path d="M23.1,73c-1.3,0-3-1.8-3.1-1.9a2,2,0,0,0-2.5-.3l-.3-.5a2.72,2.72,0,0,1,3.2.3h0c.5.5,1.8,1.8,2.8,1.8a.76.76,0,0,0,.5-.2.45.45,0,0,0,0-.5A2.45,2.45,0,0,0,22,71v-.5c1.1.1,1.9.4,2.1,1a1.08,1.08,0,0,1,0,1.1h0a1.78,1.78,0,0,1-1,.4Z"></path><path d="M14.8,77.7l-.3-.4A7.72,7.72,0,0,0,17,70.6l.5-.1A7.92,7.92,0,0,1,14.8,77.7Z"></path><path d="M31.9,83.8a29.37,29.37,0,0,1-5.1-.5,30.47,30.47,0,0,1-12.3-5.5l.3-.4a28.66,28.66,0,0,0,17.8,5.9h0a28.66,28.66,0,0,0,17.8-5.9l.3.4a29.78,29.78,0,0,1-18.2,6.1h0A1.27,1.27,0,0,0,31.9,83.8Z"></path><path d="M50.4,77.7a7.92,7.92,0,0,1-2.7-7.2l.5.1a7.72,7.72,0,0,0,2.5,6.7Z"></path><path d="M42.2,73h0a1.27,1.27,0,0,1-.9-.4h0a1.08,1.08,0,0,1,0-1.1,2.62,2.62,0,0,1,2.1-1V71c-.9.1-1.5.3-1.7.7a.45.45,0,0,0,0,.5.76.76,0,0,0,.5.2h0c.9,0,2.3-1.3,2.8-1.8h0a2.72,2.72,0,0,1,3.2-.3l-.3.5a2,2,0,0,0-2.5.3C45.2,71.2,43.5,73,42.2,73Z"></path><path d="M43,75.2l-1.7-1.9h-1v-.2a2.7,2.7,0,0,1,.6-2.4c.8-.8,2.4-1,4.6-.4l-.1.5c-2-.5-3.4-.4-4.1.3a2.16,2.16,0,0,0-.5,1.7h.7l1.9,2Z"></path><path d="M49.2,76.1l-.1-.5c.1,0,2.7-.3,2.6-2.7a9.79,9.79,0,0,1-1.4-3.7v-.1s.2-1.5-3.3-2.7c-2.3-.4-2.7-1.4-2.8-2a2.26,2.26,0,0,1,1.4-2.1,1.59,1.59,0,0,1,2,.6h0a1.1,1.1,0,0,1,0,.8,1.85,1.85,0,0,1-.8.7A3.55,3.55,0,0,1,47.9,66h-.1c3.1,1.2,3.1,2.8,3,3a11.67,11.67,0,0,0,1.4,3.5h0v.1C52.5,75.7,49.2,76.1,49.2,76.1Zm-3-13.3a.9.9,0,0,0-.5.1,1.54,1.54,0,0,0-1,1.5c.1.7,1,1.3,2.4,1.5h.1A4.89,4.89,0,0,0,46,64.6l-.4-.3.5-.1a1.56,1.56,0,0,0,.8-.6.3.3,0,0,0,0-.4c0-.3-.4-.4-.7-.4Z"></path><path d="M48,72.2l-.2-.5a3,3,0,0,0,1.8-1.5,2.36,2.36,0,0,0-.3-2l.5-.3a3.15,3.15,0,0,1,.4,2.5A4.33,4.33,0,0,1,48,72.2Z"></path><path d="M49.1,71.1c-.5-1.5-1.6-1.5-2.8-1.5-.9,0-1.9,0-2.4-.9l-.1-.2.1-.1a4.76,4.76,0,0,0-.7-3.3V65h0a3.61,3.61,0,0,1,.9-2.6,3,3,0,0,1,2.4-.8c.2,0,1.7.2,2,1.2v.1l-.1.1a1.43,1.43,0,0,0,.5,1.9.1.1,0,0,1,.1.1l.1.1v.1a1.5,1.5,0,0,1-1,1.4l-.1-.4a1.14,1.14,0,0,0,.7-.8,2,2,0,0,1-.7-2.5c-.2-.5-1.2-.7-1.5-.7a2.21,2.21,0,0,0-1.9.6,3.14,3.14,0,0,0-.7,2.1,5.28,5.28,0,0,1,.8,2.5v1.2c.3.5.9.5,1.8.5,1.2,0,2.6,0,3.3,1.8Z"></path><rect x="32.5" y="53.9" width="0.4" height="3.5"></rect><polygon points="32.3 56.7 32.3 57.8 32.6 57.7 33 57.8 33 56.7 32.3 56.7"></polygon><path d="M35.2,54.8a4.51,4.51,0,0,0-2.5-.5,4.19,4.19,0,0,0-2.5.5Z"></path><polygon points="31.3 57.1 30.7 54.9 30.2 57.1 30.1 57 30.7 54.6 31.3 57 31.3 57.1"></polygon><rect x="29.9" y="57" width="1.7" height="0.2"></rect><polygon points="35.1 57.1 34.5 54.9 34 57.1 33.9 57 34.5 54.6 35.2 57 35.1 57.1"></polygon><rect x="33.7" y="57" width="1.7" height="0.2"></rect><path d="M30.7,67.7c.2.5,1.3,0,.8.7,0,0-.7.7-.5,1,0,0,.3.5.8,0,.8-.5,0,1.2.9,1.2h0c.9,0,.1-1.8.9-1.2.6.5.8,0,.8,0,.2-.3-.5-1-.5-1-.6-.6.5-.1.8-.7s-1.4-.7-1.8-2.8h-.3c-.5,2.1-2.2,2.1-1.9,2.8" fill="#9a855a"></path><path d="M32.7,70.8h-.3c-.5-.2-.5-.8-.5-1.1v-.1a.82.82,0,0,1-1.2-.1c-.3-.4.2-1,.5-1.2a.84.84,0,0,1-.7-.4h0c-.2-.5.2-.8.5-1A2.59,2.59,0,0,0,32.3,65v-.2H33V65a2.59,2.59,0,0,0,1.3,1.9c.3.2.7.5.5,1a.67.67,0,0,1-.7.4c.2.3.7.8.5,1.2a.55.55,0,0,1-.5.3.84.84,0,0,1-.7-.2v.1c0,.3,0,.9-.5,1.1h-.2ZM32,68.9h.2c.2.1.2.4.2.7,0,.5.1.6.2.6h0c.2,0,.2-.1.2-.6,0-.3,0-.6.2-.7a.44.44,0,0,1,.5.1h0c.1.1.2.1.3.2a.1.1,0,0,0,.1-.1,1.79,1.79,0,0,0-.5-.7h0a.56.56,0,0,1-.2-.6c.1-.3.3-.2.5-.2s.4,0,.4-.1,0-.1-.3-.4a3.68,3.68,0,0,1-1.4-1.8A3.44,3.44,0,0,1,31,67.1c-.4.2-.4.3-.3.4s.2.1.4.1.4,0,.5.2-.1.5-.2.6h0a1.79,1.79,0,0,0-.5.7l.1.1c.1,0,.2-.1.3-.2h0A3.55,3.55,0,0,0,32,68.9Z"></path><path d="M35.5,67c.6-.1.4-1.2.8-.5,0,0,.4.9.8.8,0,0,.5-.1.3-.8-.3-.9,1.2.4,1.5-.4h0c.3-.9-1.6-.7-.9-1.2s.3-.8.3-.8c-.2-.3-1.1.2-1.1.2-.8.3.1-.5-.4-.9s-1.1,1.2-3.2.9v.1h0v.1c1.8.9,1.3,2.6,1.9,2.5" fill="#9a855a"></path><path d="M37.1,67.6c-.4,0-.8-.5-.9-.8a.9.9,0,0,1-.6.6h0c-.5.1-.7-.4-.8-.8a2.6,2.6,0,0,0-1.4-1.8l-.2-.1.2-.7h.2a2.86,2.86,0,0,0,2.2-.6c.3-.2.7-.5,1.1-.2a.78.78,0,0,1,.2.8c.3-.2,1-.4,1.3,0a.76.76,0,0,1,.2.5.82.82,0,0,1-.4.6h.1c.3.1.9.3.9.8h0l-.1.5h0c-.3.4-.9.2-1.2.2h-.1a.85.85,0,0,1,0,.7.55.55,0,0,1-.5.3Zm-1-1.6a.66.66,0,0,1,.5.4h0a1.79,1.79,0,0,0,.5.7.1.1,0,0,0,.1-.1v-.3h0a.47.47,0,0,1,.1-.6c.2-.2.5-.1.7,0,.5.1.6.1.6,0h0c0-.2,0-.2-.5-.4a.92.92,0,0,1-.6-.4.55.55,0,0,1,.3-.5h0c.1-.1.2-.1.2-.3v-.1a2.35,2.35,0,0,0-.8.2h0c-.2.1-.4.2-.6,0s-.1-.4-.1-.6.1-.3,0-.4-.1,0-.5.2a3.87,3.87,0,0,1-2.1.8,3.6,3.6,0,0,1,1.2,1.8c.1.4.2.4.2.4h0c.1,0,.2-.2.2-.3a1,1,0,0,1,.6-.5Z"></path><path d="M36.4,62.2c.1-.6-1.1-.8-.2-1,0,0,1-.1,1-.5,0,0,.1-.5-.7-.5s.7-1,0-1.5h0c-.7-.5-1.1,1.3-1.4.5s-.7-.5-.7-.5c-.3.1-.2,1.1-.2,1.1.1.8-.5-.2-1,.1-.7.4.8,1.4-.2,3.3l.1.1h0l.1.1c1.6-1.5,3-.5,3.2-1.2" fill="#9a855a"></path><path d="M33.3,63.8l-.6-.4.1-.2a2.66,2.66,0,0,0,.1-2.3c-.1-.4-.3-.9.2-1.1a.75.75,0,0,1,.8.1c0-.4-.1-1.1.4-1.3a.64.64,0,0,1,.6,0,1,1,0,0,1,.5.6l.1-.1c.2-.2.6-.7,1-.6h0l.4.3h0c.3.4,0,.9-.2,1.2h-.2a1.45,1.45,0,0,1,.7.2.76.76,0,0,1,.2.5c0,.5-.8.7-1.1.7a.83.83,0,0,1,.3.8h0c-.1.5-.6.5-1,.5a2.65,2.65,0,0,0-2.2.8Zm.1-3.7h0c-.1,0-.1.1,0,.5a3.33,3.33,0,0,1,.1,2.2,3.94,3.94,0,0,1,2.1-.6c.4,0,.5,0,.5-.1h0c0-.1-.1-.2-.2-.3a.85.85,0,0,1-.3-.5c0-.2.4-.3.5-.3h0a1.33,1.33,0,0,0,.8-.3v-.1a.37.37,0,0,0-.3-.1h0a.76.76,0,0,1-.5-.2.66.66,0,0,1,.2-.7c.3-.4.3-.5.2-.6h0c-.1-.1-.2,0-.5.3s-.3.5-.6.4-.4-.3-.4-.4h0c0-.1-.1-.2-.2-.3h-.1a1.1,1.1,0,0,0,0,.8h0c0,.2,0,.5-.2.6a.66.66,0,0,1-.6-.1C33.7,60.2,33.6,60.2,33.4,60.1Z"></path><path d="M32.1,59.9c-.5-.3-1.1.8-1-.1,0,0,.2-1-.2-1.1,0,0-.5-.2-.7.5s-.7-1-1.4-.5h0c-.7.5.9,1.5,0,1.5-.7,0-.7.5-.7.5,0,.4,1,.5,1,.5.8.2-.4.4-.2,1,.2.8,1.5-.3,3.1,1.2l.1-.1h0l.1-.1c-.9-1.9.5-2.9-.1-3.3" fill="#9a855a"></path><path d="M32,63.8l-.2-.2a2.65,2.65,0,0,0-2.2-.8c-.4,0-.9,0-1-.5a.83.83,0,0,1,.3-.8c-.4-.1-1.1-.2-1.1-.7a.76.76,0,0,1,.2-.5.62.62,0,0,1,.7-.2l-.1-.1a1,1,0,0,1-.2-1.2h0l.5-.3h0c.5-.1.8.4,1,.6l.1.1c.1-.2.2-.5.4-.6a.64.64,0,0,1,.6,0c.5.2.4.9.4,1.3a.78.78,0,0,1,.8-.1h0c.5.3.3.7.2,1.1a2.64,2.64,0,0,0,.1,2.3l.1.2Zm-3.2-3.3a.37.37,0,0,0-.3.1v.1a1.14,1.14,0,0,0,.8.3h0c.2,0,.5.1.5.3a.55.55,0,0,1-.3.5c-.2.1-.3.2-.2.3s0,.1.5.1a3.7,3.7,0,0,1,2.1.6,3.33,3.33,0,0,1,.1-2.2,2.81,2.81,0,0,0,.1-.5,1,1,0,0,0-.4.1.66.66,0,0,1-.6.1c-.2-.1-.2-.4-.2-.6h0a1.1,1.1,0,0,0,0-.8h-.1c-.1.1-.2.2-.2.3h0a.42.42,0,0,1-.4.4c-.3,0-.4-.2-.6-.4-.3-.4-.4-.5-.5-.3h0c-.1.1-.1.2.2.6a.66.66,0,0,1,.2.7.37.37,0,0,1-.5.2l-.2.1Z"></path><path d="M28.6,63.3c-.4.4.4,1.3-.4.9,0,0-.9-.5-1.1-.2,0,0-.4.4.3.8.7.6-1.2.3-.9,1.2h0c.3.8,1.7-.4,1.5.4s.3.8.3.8c.4.1.8-.8.8-.8.4-.7.3.4.9.5.8.1.2-1.6,2.1-2.6v-.1h0v-.1c-2.4.3-2.9-1.3-3.5-.8" fill="#9a855a"></path><path d="M28.2,67.6h-.1a2.19,2.19,0,0,1-.5-.3.85.85,0,0,1,0-.7h-.1c-.3.1-.9.3-1.2-.2h0l-.2-.5h0c0-.5.6-.7.9-.8h.1a.82.82,0,0,1-.4-.6.73.73,0,0,1,.2-.6c.3-.4,1-.1,1.3.1a.78.78,0,0,1,.2-.8h0a.8.8,0,0,1,1.1.2,2.52,2.52,0,0,0,2.2.6H32l.2.7H32a3,3,0,0,0-1.5,1.8c-.1.4-.3.9-.8.8a.9.9,0,0,1-.6-.6C29,67,28.6,67.6,28.2,67.6Zm-.4-1.7a.37.37,0,0,1,.3.1,1.27,1.27,0,0,1,.1.6h0v.3l.1.1c.1,0,.3-.3.5-.7h0c.1-.1.2-.4.5-.4s.3.2.4.4.1.3.2.3.1,0,.2-.4a3.22,3.22,0,0,1,1.2-1.8,3.23,3.23,0,0,1-2.1-.8c-.4-.2-.4-.2-.5-.2h0c-.1.1,0,.2,0,.4s.1.4-.1.6-.5,0-.6,0h0a1.88,1.88,0,0,0-.8-.2v.1c0,.1.1.2.2.3h0a.55.55,0,0,1,.3.5c0,.3-.3.4-.6.5-.5.2-.5.2-.5.4h0c.1.2.2.2.6,0A2.14,2.14,0,0,1,27.8,65.9Z"></path><path d="M31.8,65.1a2.3,2.3,0,0,1-.6-2.8.19.19,0,0,1,0-.3h.2a1.08,1.08,0,0,1,.8-.2,2.46,2.46,0,0,1,1.9.9l.1.1-.1.2c-.1.1-.3.2-.4.3l-.2.2c-.2.2-.4.3-.6.5a10.59,10.59,0,0,0-1,1.2l-.1.2Z" fill="#edb140"></path><path d="M32.2,62a2.34,2.34,0,0,1,1.8.8c-.1.1-.3.2-.4.3l-.2.2a2.65,2.65,0,0,1-.6.5,10.59,10.59,0,0,0-1,1.2,2.15,2.15,0,0,1-.6-2.7.31.31,0,0,1-.1-.2h0c.1,0,.1,0,.2.1a2.92,2.92,0,0,1,.9-.2m0-.3a2.92,2.92,0,0,0-.9.2H31a.19.19,0,0,0,0,.3,2.63,2.63,0,0,0,.7,2.9l.2.2.2-.3a5.24,5.24,0,0,1,1-1.1,2.65,2.65,0,0,1,.6-.5l.2-.2.4-.2.3-.2-.2-.2a4.69,4.69,0,0,0-2.2-.9"></path><path d="M32.6,65.4a1.69,1.69,0,0,1-1-.3l-.1-.1v-.1a6.42,6.42,0,0,1,1-1.3,2.65,2.65,0,0,1,.6-.5l.2-.2c.2-.1.3-.2.5-.3h.1l.1.1a1.66,1.66,0,0,1,0,2.1c.3.2.3.5.2.6v.1l-.4-.1-.1-.4a1.67,1.67,0,0,1-1.1.4Z" fill="#edb140"></path><path d="M34,62.7a1.66,1.66,0,0,1-.1,2.1c.2.1.4.3.3.5l-.3-.1-.1-.3a1.66,1.66,0,0,1-1.2.5,1.61,1.61,0,0,1-.9-.3,6.42,6.42,0,0,1,1-1.3,2.65,2.65,0,0,1,.6-.5l.2-.2a1.76,1.76,0,0,1,.5-.4m0-.4-.2.1c-.2.1-.3.2-.5.3s-.2.1-.3.2l-.6.6a7.55,7.55,0,0,0-1.1,1.4l-.1.2.2.1a2.1,2.1,0,0,0,1.1.4,2,2,0,0,0,1.1-.3v.1h.1l.3.1h.2l.1-.2a.62.62,0,0,0-.1-.7,1.8,1.8,0,0,0,0-2.2Z"></path><polygon points="27.9 54.5 27.9 55.3 26.5 55.3 26.5 54.5 24.8 54.5 24.8 58.3 27.1 57.7 29.6 58.4 29.6 58.4 29.6 54.5 27.9 54.5" fill="#a12724"></polygon><path d="M29.9,58.8,27.1,58l-2.5.7V54.2h2.2V55h.9v-.8h2.2Zm-2.8-1.4,2.2.6V54.7H28.2v.8h-2v-.8H25.1V58Z"></path><rect x="26.2" y="56" width="1.9" height="0.1"></rect><polygon points="38.8 54.5 38.8 55.3 37.3 55.3 37.3 54.5 35.7 54.5 35.7 58.4 38.2 57.7 40.5 58.3 40.5 54.5 38.8 54.5" fill="#a12724"></polygon><path d="M35.4,58.8V54.3h2.2V55h.9v-.8h2.2v4.4L38.2,58Zm.6-4V58l2.2-.6,2,.6V54.9H39.1v.8h-2v-.8Z"></path><rect x="37.1" y="56" width="1.9" height="0.1"></rect><path d="M20.2,54.6c1.7-3-.7-2.7-.7-3.8,0,1.2-2.2,1.6-.7,3.8Z" fill="#a12724"></path><path d="M20.3,54.9H18.6l-.1-.1a2.2,2.2,0,0,1,.2-3.1,1.62,1.62,0,0,0,.5-.9h.5a.72.72,0,0,0,.4.6c.8.6,1.3,1.3.2,3.4Zm-1.4-.5H20c.9-1.7.4-2.1-.1-2.5l-.3-.3a2.18,2.18,0,0,1-.4.5,1.6,1.6,0,0,0-.3,2.3Z"></path><path d="M19.8,51.9v.2c0,.1.1.2.2.3l.3.6v.4a.52.52,0,0,1-.2.4.76.76,0,0,1-.4.2.9.9,0,0,1-.5-.1c-.1,0-.1-.1-.2-.2s-.1-.1-.1-.2v-.3c.1-.1.2-.3.3-.3a.1.1,0,0,0,.1-.1.31.31,0,0,1-.1.2c-.1.1-.1.2-.2.3v.2c0,.1.1.1.1.2h.3a.22.22,0,0,0,.2-.2.37.37,0,0,0,.1-.3v-.3a.76.76,0,0,0-.2-.5.6.6,0,0,1-.1-.4,1.58,1.58,0,0,1,.4-.1"></path><path d="M23.3,59.2v-.3h-.6l-.3.3v.2H19.9v-2H19v2H16.5v-.2l-.3-.3h-.6v.3h-.2v.5h.2V60h.6l.3-.3v-.2H19v6.3a3.55,3.55,0,0,0,.9-.4V59.5h2.5v.2l.3.3h.6v-.3h.2v-.5Z"></path><path d="M16.7,50.3v4.2h-.5V55h.3l2.2,2.1h1.5L22.4,55h.3v-.5h-.5V50.3H23l.7-1.5H22.3l-1.6-2H18.1l-1.6,2H15l.7,1.5Zm.5,0h4.4v4.2H17.2Z"></path><path d="M46.5,54.6c1.7-3-.7-2.7-.7-3.8,0,1.2-2.2,1.6-.7,3.8Z" fill="#a12724"></path><path d="M46.7,54.9H45l-.1-.1a2.2,2.2,0,0,1,.2-3.1,1.62,1.62,0,0,0,.5-.9h.5c0,.2.2.4.4.6.8.6,1.3,1.3.2,3.4Zm-1.4-.5h1.1c.9-1.7.4-2.1-.1-2.5l-.3-.3a2.18,2.18,0,0,1-.4.5,1.53,1.53,0,0,0-.3,2.3Z"></path><path d="M46.2,51.9v.2c0,.1.1.2.2.3l.3.6v.4a.52.52,0,0,1-.2.4.76.76,0,0,1-.4.2.9.9,0,0,1-.5-.1c-.1,0-.1-.1-.2-.2s-.1-.1-.1-.2v-.3c.1-.1.2-.3.3-.3s.1-.1.2-.1,0,.1-.1.2-.1.2-.2.3v.2c0,.1.1.1.1.2h.3a.22.22,0,0,0,.2-.2.37.37,0,0,0,.1-.3v-.3a.76.76,0,0,0-.2-.5c.1-.1,0-.2,0-.4s.1-.1.2-.1"></path><path d="M42,59.2v-.3h.6l.3.3v.2h2.5v-2h.9v2h2.5v-.2l.3-.3h.6v.3h.2v.5h-.2V60h-.6l-.3-.3v-.2H46.3v6.3a3.55,3.55,0,0,1-.9-.4V59.5H42.9v.2l-.3.3H42v-.3h-.2v-.5Z"></path><path d="M49.5,50.3l.7-1.5H48.8l-1.7-2H44.5l-1.7,2H41.4l.7,1.5H43v4.2h-.5V55h.3L45,57.1h1.4L48.6,55h.3v-.5h-.5V50.3Zm-1.4,4.2H43.7V50.3h4.4Z"></path><path d="M41.2,69.4a2.87,2.87,0,0,0,.7-1.8,2.41,2.41,0,0,0-1.8.7l-.3.3c-.1-.2-.2-.5-.3-.7a2.84,2.84,0,0,0-.8,1.1,2.08,2.08,0,0,0,.1,1.1,2.34,2.34,0,0,0-.7.7,2.84,2.84,0,0,0-.4-1.2,1.85,1.85,0,0,0-.7,1.2,1.73,1.73,0,0,0,.1,1l-.4.5a.9.9,0,0,0-.1-.5,2.1,2.1,0,0,0-.8-1.1,3.08,3.08,0,0,0-.3,1.3,3.55,3.55,0,0,0,.4.9,2.19,2.19,0,0,1-.5.3l-.2.1a3.51,3.51,0,0,0-.5-.8,2.11,2.11,0,0,0-1.3-.5,2.11,2.11,0,0,0,.5,1.3c.1.1.3.2.4.3a3.55,3.55,0,0,1-1,.2c0-.2-.1-.4-.1-.6a2.19,2.19,0,0,0-.9-1,1.69,1.69,0,0,0-.1,1.4c0,.1.1.2.1.3-.2,0-.4-.1-.6-.1h-.2a1.7,1.7,0,0,0,0-1,2.1,2.1,0,0,0-.8-1.1,3.08,3.08,0,0,0-.3,1.3c0,.1.1.2.1.3l-.6-.3a2.35,2.35,0,0,0,.2-.8,1.66,1.66,0,0,0-.5-1.2,1.85,1.85,0,0,0-.7,1.2v.3a2.09,2.09,0,0,0-.6-.4,1.81,1.81,0,0,0-.2-2.2,1.85,1.85,0,0,0-.7,1.2v.3l-.4-.6a1.53,1.53,0,0,0,.2-1.3,2.1,2.1,0,0,0-.8-1.1,3.08,3.08,0,0,0-.3,1.3,1.21,1.21,0,0,0-.5-.5c.1-.4-.4-1-1-1.5a3.13,3.13,0,0,0-1.9-.4,3,3,0,0,0,1,1.7,2.16,2.16,0,0,0,1.7.5c.1.2.3.3.4.5a1.59,1.59,0,0,0-1.3.3,1.55,1.55,0,0,0,1.1.8,2,2,0,0,0,1.1,0,4.62,4.62,0,0,0,.7.7c-.2,0-.4.1-.6.1a2.19,2.19,0,0,0-1,.9,2.2,2.2,0,0,0,1.4.1,1.46,1.46,0,0,0,.9-.6c.3.2.5.4.8.6-.2,0-.5.1-.7.1a2.19,2.19,0,0,0-1,.9,2.2,2.2,0,0,0,1.4.1,1.45,1.45,0,0,0,1-.7h.1a5.9,5.9,0,0,0,.8.4,2.19,2.19,0,0,0-.5.3,1.85,1.85,0,0,0-.7,1.2,1.52,1.52,0,0,0,1.3-.3,1.6,1.6,0,0,0,.7-.9l.2.1a3.4,3.4,0,0,0,1,.1h0c-.2.1-.5.2-.6.4a1.85,1.85,0,0,0-.5,1.2,2,2,0,0,0,1.3-.4,1.7,1.7,0,0,0,.6-1,.37.37,0,0,0,.1-.3,4.4,4.4,0,0,0,1-.2c-.1.1-.1.2-.2.4a2.25,2.25,0,0,0,.1,1.4,2.41,2.41,0,0,0,1-1,1.67,1.67,0,0,0,.1-1.2l.3-.2c.2-.1.3-.2.5-.3a1.91,1.91,0,0,0,1,.5,1.94,1.94,0,0,0,1.3-.3,2.1,2.1,0,0,0-1.1-.8h-.5l.4-.5a1.31,1.31,0,0,0,1.2.3,1.85,1.85,0,0,0,1.2-.7,2,2,0,0,0-1.3-.4l-.4.1a9,9,0,0,1,1-.9,2.38,2.38,0,0,0,1.2.3,1.85,1.85,0,0,0,1.2-.7,2.09,2.09,0,0,0-.6-.4c.1-.1.3-.2.4-.3" fill="#264946"></path><path d="M31.3,76.3H31V76a2.25,2.25,0,0,1,.6-1.4h-.2a2.7,2.7,0,0,1-.7.8,2.06,2.06,0,0,1-1.5.3h-.3v-.3a2.75,2.75,0,0,1,.8-1.5l.1-.1-.2-.1a2.07,2.07,0,0,1-1,.6,2.92,2.92,0,0,1-1.6-.1l-.2-.1.1-.2A2,2,0,0,1,28,72.8h.1l-.1-.1a4.05,4.05,0,0,1-.9.5,2.26,2.26,0,0,1-1.6-.2h-.1l.1-.2a2,2,0,0,1,1.1-1.1l.2-.1-.2-.2a2,2,0,0,1-1.1,0,2,2,0,0,1-1.2-1l-.1-.2.2-.1a.76.76,0,0,1,.5-.2,4.24,4.24,0,0,1-1.4-.6,2.89,2.89,0,0,1-1.1-1.8v-.3h.3a3.08,3.08,0,0,1,2.1.4A2.59,2.59,0,0,1,25.9,69c.1-.2.2-.5.3-.7l.1-.2.2.1a1.76,1.76,0,0,1,.9,1.3,1.7,1.7,0,0,1,.1.7,1.47,1.47,0,0,1,.5-.6l.2-.2.2.2a2.46,2.46,0,0,1,.5,1.5.9.9,0,0,1-.1.5,1.56,1.56,0,0,1,.6-.8l.2-.2.2.2a3.13,3.13,0,0,1,.5,1c0-.1.1-.1.1-.2l.1-.2.2.1a2.34,2.34,0,0,1,1,1.2,2.49,2.49,0,0,1,.1.8h.1a2.2,2.2,0,0,1,.1-1.4l.1-.2.2.1a2.36,2.36,0,0,1,.9.8c-.1-.3-.1-.5-.2-.8v-.3h.3a2.2,2.2,0,0,1,1.5.6c.2.2.3.4.5.6l.1-.1a6.89,6.89,0,0,1-.3-.8,2.32,2.32,0,0,1,.3-1.6l.1-.2.2.1a3,3,0,0,1,.8.8v-.6a2.22,2.22,0,0,1,.8-1.3l.2-.2.2.2a2,2,0,0,1,.4.8l.2-.2a1.7,1.7,0,0,1,0-1,2,2,0,0,1,.9-1.3l.2-.2.2.2c.1.1.1.2.2.3h0a3.06,3.06,0,0,1,2-.7h.3v.3a3,3,0,0,1-.8,2h0l-.1.1c.1.1.2.1.3.2l.2.2-.2.2a2.1,2.1,0,0,1-1.4.7,1.72,1.72,0,0,1-1.2-.2l-.3.3a2.22,2.22,0,0,1,1.1.5l.2.2V72a2.19,2.19,0,0,1-1.4.8H38l.6.6.2.2-.2.2a2.82,2.82,0,0,1-1.5.4,3,3,0,0,1-1-.4.52.52,0,0,1-.4.2h-.1a1.8,1.8,0,0,1-.2,1,2,2,0,0,1-1.1,1.1l-.3.1-.1-.2a2.29,2.29,0,0,1-.1-1.4h-.3c0,.1,0,.1-.1.2a2.59,2.59,0,0,1-.7,1.1A2.3,2.3,0,0,1,31.3,76.3Zm1.3-2.2h0l.1.1.2.3-.3.1a2.19,2.19,0,0,0-.5.3,1.23,1.23,0,0,0-.4.8,1.14,1.14,0,0,0,.8-.3,1,1,0,0,0,.5-.8v-.1l.1-.1a.35.35,0,0,0,.1-.2V74a4.33,4.33,0,0,0-.1-.5,1.79,1.79,0,0,0-.5-.7,1.39,1.39,0,0,0,0,.9l.1.2Zm2.1-.2-.2.4c-.1.1-.1.2-.2.3a1.39,1.39,0,0,0,0,.9,1.34,1.34,0,0,0,.6-.7,1.18,1.18,0,0,0,.1-1l-.1-.2H35l-.1-.1a1.79,1.79,0,0,0-.5-.7,2,2,0,0,0-.8-.4,1.23,1.23,0,0,0,.4.8,1.38,1.38,0,0,0,.4.3l.3.2h0l.1.1Zm-3.8.1-.4.2c-.2.1-.3.2-.5.3a1.79,1.79,0,0,0-.5.7,1.88,1.88,0,0,0,.8-.2,1.34,1.34,0,0,0,.6-.7V74Zm-3.3-.1a1.39,1.39,0,0,0,.9,0,1.56,1.56,0,0,0,.8-.6v-.1h-.4c-.2,0-.4.1-.6.1A2.17,2.17,0,0,0,27.6,73.9Zm3.2-.1.2.1h.1v-.1a1.1,1.1,0,0,0,0-.8,1.16,1.16,0,0,0-.5-.7,1.41,1.41,0,0,0-.1.9c0,.1.1.2.1.3Zm2.6-.5h0c0,.1.1.2.1.4h.2A1.38,1.38,0,0,0,33.4,73.3Zm2.7-.4.2.2a1.27,1.27,0,0,0,.9.4,2,2,0,0,0,.8-.1,1.27,1.27,0,0,0-.7-.4h-.8l-.4-.1.2-.1v-.4a.6.6,0,0,0-.1-.4,1.16,1.16,0,0,0-.5-.7,1.41,1.41,0,0,0-.1.9c.2.1.3.4.5.7Zm-7,0,.4.3v-.1a1.85,1.85,0,0,0,.2-.7,1.88,1.88,0,0,0-.2-.8,2,2,0,0,0-.4.8v.5Zm-3-.2a1.39,1.39,0,0,0,.9,0,2.18,2.18,0,0,0,.8-.5L28,72h-.5c-.2,0-.4.1-.6.1a1.56,1.56,0,0,0-.8.6Zm11.2-.8.2.2a1.8,1.8,0,0,0,1,.2,1.23,1.23,0,0,0,.8-.4,3.09,3.09,0,0,0-.8-.2.37.37,0,0,0-.3.1Zm-8.7.1ZM28,72h0a1.61,1.61,0,0,0,.3-.9,1.88,1.88,0,0,0-.2-.8,2,2,0,0,0-.4.8v.7l.2.2Zm9.6-1.9a2,2,0,0,0-.4.8,2.77,2.77,0,0,0,.1.9h0l.5-.5v-.4a1.88,1.88,0,0,0-.2-.8Zm-12.7.3a1.79,1.79,0,0,0,.7.5,1.7,1.7,0,0,0,1,0h0v-.1l.2-.2a1.18,1.18,0,0,0,.1-1,1.16,1.16,0,0,0-.5-.7,1.18,1.18,0,0,0-.1.8l.1.7h0l.1.3-.3-.3-.5-.1a2.49,2.49,0,0,0-.8.1Zm14.2-.2.1.1a1.23,1.23,0,0,0,1,.2,1.91,1.91,0,0,0,.8-.3c-.1,0-.2-.1-.3-.1l-.5-.2.4-.3.3-.3a3.1,3.1,0,0,0,.6-1.3,1.61,1.61,0,0,0-1.3.6l-.3.3-.3.4-.1-.5c0-.1-.1-.2-.1-.3a1.23,1.23,0,0,0-.4.8,1.39,1.39,0,0,0,0,.9ZM23,67.6a2,2,0,0,0,.8,1.2,2.46,2.46,0,0,0,1.5.5h.1v-.1a2,2,0,0,0-.9-1.2A2.82,2.82,0,0,0,23,67.6Z"></path><path d="M39.6,52V50.6l-2.2-.3-1.7-1v-.5l-.3-.3,1.3-3.2-.8-1.7.1-1.5a12.57,12.57,0,0,0-3.3-.5h0a9.12,9.12,0,0,0-3.3.5v1.5l-.8,1.7,1.3,3.2-.3.3v.5l-1.7,1-2.2.3V52l-1.1.9H40.9Z" fill="#a8a3a3"></path><path d="M41.5,53.2H23.7l1.6-1.3V50.3l2.4-.3,1.5-.9v-.5l.2-.2-1.3-3.1.8-1.8L29,42l.2-.1a11.27,11.27,0,0,1,3.2-.5H33a11.27,11.27,0,0,1,3.2.5l.2.1-.1,1.6.8,1.7-1.3,3.1.2.2v.5l1.5.9,2.4.3v1.6Zm-16.3-.5H40l-.6-.5V50.9l-2-.2-1.9-1.1V49l-.3-.3,1.3-3.2-.8-1.7V42.5a10.32,10.32,0,0,0-3-.4h0a11,11,0,0,0-3.1.4l.1,1.3-.8,1.7,1.3,3.2-.3.3v.6L28,50.7l-2,.2v1.3Z"></path><path d="M37.8,49.9c-.2-.3-.9-.4-.9-.4a5,5,0,0,1-4.3,2.4h0a5,5,0,0,1-4.3-2.4s-.7,0-.9.4a5.42,5.42,0,0,0,5.2,3h0a5.49,5.49,0,0,0,5.2-3" fill="#264946"></path><path d="M32.6,53.2h-.3a6,6,0,0,1-4-1.6A6.1,6.1,0,0,1,27.1,50v-.1l.1-.1a1.31,1.31,0,0,1,1.1-.5h.2l.1.1a4.59,4.59,0,0,0,3.8,2.3H33a4.59,4.59,0,0,0,3.8-2.3l.1-.1H37c.1,0,.9.1,1.1.5l.1.1V50A4.81,4.81,0,0,1,37,51.6a6,6,0,0,1-4,1.6Zm-4.8-3.3a5.26,5.26,0,0,0,4.9,2.7h0a5.45,5.45,0,0,0,4.9-2.7.75.75,0,0,0-.5-.1,5.24,5.24,0,0,1-4.4,2.4h0a5.12,5.12,0,0,1-4.4-2.4A2,2,0,0,0,27.8,49.9Z"></path><path d="M29.3,43.6a18.3,18.3,0,0,1,6.6,0" fill="#a8a3a3"></path><path d="M29.4,43.9l-.1-.5a18.85,18.85,0,0,1,6.7,0l-.1.5A17.75,17.75,0,0,0,29.4,43.9Z"></path><path d="M29.3,42.8a18.3,18.3,0,0,1,6.6,0" fill="#a8a3a3"></path><path d="M29.4,43l-.1-.5a18.85,18.85,0,0,1,6.7,0l-.1.5A23.58,23.58,0,0,0,29.4,43Z"></path><rect x="30.7" y="41.8" width="0.5" height="1.6"></rect><rect x="32.4" y="41.7" width="0.5" height="1.6"></rect><rect x="34" y="41.8" width="0.5" height="1.6"></rect><path d="M32.6,46.4a8.54,8.54,0,0,1-4.2-.8l.3-.5a11,11,0,0,0,4,.8,8,8,0,0,0,4-.8l.3.5A9.57,9.57,0,0,1,32.6,46.4Z"></path><path d="M32.6,50.6a5.58,5.58,0,0,1-3.3-1l.3-.4a4.8,4.8,0,0,0,5.8,0l.3.4A5.22,5.22,0,0,1,32.6,50.6Z"></path><path d="M32.6,49.5a5.29,5.29,0,0,1-3-.9l.3-.5a5.23,5.23,0,0,0,5.4,0l.3.5A5.29,5.29,0,0,1,32.6,49.5Z"></path><path d="M29.7,46.5l.9,1.5a1.85,1.85,0,0,0,.7.2l-.2-1.5a7.84,7.84,0,0,1-1.4-.2" fill="#7e7a7a"></path><path d="M34.1,46.8l-.2,1.5c.2-.1.5-.1.7-.2l.9-1.5a7.84,7.84,0,0,0-1.4.2" fill="#7e7a7a"></path><path d="M32.6,46.9h-.5v1.5h1V46.9h-.5" fill="#7e7a7a"></path><path d="M30.7,43.9l-1,1.5,1.4.3.2-1.8h-.6" fill="#7e7a7a"></path><path d="M34.6,43.8H34l.2,1.8a7,7,0,0,0,1.4-.3Z" fill="#7e7a7a"></path><path d="M32.1,43.8v1.9h1V43.8h-1" fill="#7e7a7a"></path><polygon points="29.3 42.8 29.3 43.6 31 43.4 31 42.6 29.3 42.8"></polygon><polygon points="31 41.8 31 42.6 32.6 42.5 32.6 41.7 31 41.8"></polygon><polygon points="32.6 42.5 32.6 43.3 34.3 43.3 34.3 42.5 32.6 42.5"></polygon><polygon points="34.3 41.8 34.3 42.5 35.9 42.8 36 42.1 34.3 41.8"></polygon></g><g><g><path d="M77.19,57.06a2.67,2.67,0,0,1-1.18-1,2.56,2.56,0,0,1-.42-1.46,2.7,2.7,0,0,1,.3-1.27,2.28,2.28,0,0,1,.8-.91,2,2,0,0,1,1.1-.34,1.62,1.62,0,0,1,.95.28,1.22,1.22,0,0,1,.47.78,1.88,1.88,0,0,0-1.32.44,1.48,1.48,0,0,0-.49,1.18,1.46,1.46,0,0,0,.41,1.1,1.48,1.48,0,0,0,1.1.42,1.88,1.88,0,0,0,1.4-.57,2,2,0,0,0,.55-1.42,2.61,2.61,0,0,0-.42-1.42,12.81,12.81,0,0,0-1.24-1.63,13.13,13.13,0,0,1-1.3-1.7A2.92,2.92,0,0,1,77.46,48a2.53,2.53,0,0,1,.46-1.49,3.15,3.15,0,0,1,1.28-1A4.17,4.17,0,0,1,81,45.08a3.31,3.31,0,0,1,2.07.61,2,2,0,0,1,.77,1.63,1.68,1.68,0,0,1-.33,1.08,1.08,1.08,0,0,1-.88.42,1.15,1.15,0,0,1-1-.5,1.56,1.56,0,0,0,.48-.59,1.83,1.83,0,0,0,.17-.76,1,1,0,0,0-1.13-1.12,1.35,1.35,0,0,0-1,.45,1.69,1.69,0,0,0-.4,1.16,2.13,2.13,0,0,0,.36,1.19,13.1,13.1,0,0,0,1.15,1.41c.43.46.77.85,1,1.18A5.27,5.27,0,0,1,83,52.38a3.43,3.43,0,0,1,.28,1.4,3.19,3.19,0,0,1-.57,1.85,3.89,3.89,0,0,1-1.54,1.31,4.91,4.91,0,0,1-2.18.48A4.11,4.11,0,0,1,77.19,57.06Z" fill="#fff"></path><path d="M84.9,56.75a2,2,0,0,1-.47-1.44,5.21,5.21,0,0,1,.13-1l1.08-5.12h2.3l-1.15,5.43a2.1,2.1,0,0,0-.06.51.58.58,0,0,0,.15.45.75.75,0,0,0,.5.14,1.2,1.2,0,0,0,.86-.39,2.23,2.23,0,0,0,.58-1h.67A4.45,4.45,0,0,1,88,56.61a3.28,3.28,0,0,1-1.83.61A1.69,1.69,0,0,1,84.9,56.75Zm1.43-8.83A1.19,1.19,0,0,1,86,47a1.22,1.22,0,0,1,.37-.9,1.19,1.19,0,0,1,.89-.38A1.3,1.3,0,0,1,88.5,47a1.19,1.19,0,0,1-.38.89,1.22,1.22,0,0,1-.9.37A1.19,1.19,0,0,1,86.33,47.92Z" fill="#fff"></path><path d="M93.56,56.71a1.91,1.91,0,0,1-.45-1.29,4.57,4.57,0,0,1,.08-.76c0-.28.11-.55.17-.82a3.93,3.93,0,0,1,.12-.51l.24-1.1a4.86,4.86,0,0,0,.11-.88c0-.54-.19-.81-.58-.81a.93.93,0,0,0-.73.41A3.17,3.17,0,0,0,92,52l-1.09,5.12H88.63l1.69-8h2.29l-.17.83a2.44,2.44,0,0,1,1.87-.89,1.81,1.81,0,0,1,1.29.45,1.75,1.75,0,0,1,.48,1.35,5,5,0,0,1-.12,1c-.07.38-.18.84-.31,1.38-.09.33-.17.65-.24,1a3.52,3.52,0,0,0-.1.74.79.79,0,0,0,.14.49.61.61,0,0,0,.5.18.94.94,0,0,0,.76-.35,3.6,3.6,0,0,0,.58-1.06H98a4.94,4.94,0,0,1-1.37,2.36,2.56,2.56,0,0,1-1.6.59A1.83,1.83,0,0,1,93.56,56.71Z" fill="#fff"></path><path d="M98.15,56.61a2.51,2.51,0,0,1-.65-1.92,7.59,7.59,0,0,1,.44-2.43A5.82,5.82,0,0,1,99.34,50a3.32,3.32,0,0,1,2.45-1,1.87,1.87,0,0,1,1.36.41,1.46,1.46,0,0,1,.41,1.06,1.35,1.35,0,0,1-.24.86.74.74,0,0,1-.61.3,1,1,0,0,1-.56-.19,2.74,2.74,0,0,0,.2-.94.85.85,0,0,0-.12-.48.35.35,0,0,0-.33-.18c-.32,0-.64.27-1,.79a7.16,7.16,0,0,0-.78,1.89,7.9,7.9,0,0,0-.3,2,1.57,1.57,0,0,0,.27,1.07,1.2,1.2,0,0,0,.88.27,2.69,2.69,0,0,0,1.47-.39,7.12,7.12,0,0,0,1.35-1.22h.54q-1.77,3-4.39,2.95A2.58,2.58,0,0,1,98.15,56.61Z" fill="#fff"></path><path d="M104.68,56.61a2.51,2.51,0,0,1-.66-1.92,7.85,7.85,0,0,1,.43-2.43A5.72,5.72,0,0,1,105.86,50a3.35,3.35,0,0,1,2.47-1c1.17,0,1.75.51,1.75,1.53a2.84,2.84,0,0,1-.51,1.64,3.76,3.76,0,0,1-1.35,1.21,4.6,4.6,0,0,1-1.81.52q0,.35,0,.48,0,1.32,1,1.32a2.26,2.26,0,0,0,1-.24,3.59,3.59,0,0,0,.92-.61,2.85,2.85,0,0,1-4.57,1.75Zm3-3.87a2.92,2.92,0,0,0,.86-1,2.57,2.57,0,0,0,.33-1.25c0-.44-.14-.66-.4-.66s-.75.34-1.11,1a8.25,8.25,0,0,0-.82,2.27A2,2,0,0,0,107.67,52.74Z" fill="#fff"></path></g><g><path d="M237.13,47.29h-1.52l.19-.74a7.35,7.35,0,0,0,1.82-.24,8.78,8.78,0,0,0,2.23-1l-2.53,11.93H235Z" fill="#fff"></path><path d="M241.25,56.79a1.57,1.57,0,0,1-.63-1.3,1.7,1.7,0,0,1,.33-1.06,1,1,0,0,1,.82-.43,1,1,0,0,1,.52.15.6.6,0,0,1,.29.36,1.06,1.06,0,0,0-.37.39,1.1,1.1,0,0,0-.14.52.82.82,0,0,0,.2.56.75.75,0,0,0,.6.22,1.71,1.71,0,0,0,1.26-.68,6.12,6.12,0,0,0,1.05-1.9,12.42,12.42,0,0,0,.64-2.7l0,0a2.19,2.19,0,0,1-.93,1.12,3,3,0,0,1-1.54.38,2.32,2.32,0,0,1-1.79-.74,3,3,0,0,1-.67-2,4.14,4.14,0,0,1,.62-2.18,4.77,4.77,0,0,1,1.63-1.62,4.28,4.28,0,0,1,2.2-.6,2.54,2.54,0,0,1,2.22,1.06,5.39,5.39,0,0,1,.75,3.13,10.62,10.62,0,0,1-.7,3.94,6.94,6.94,0,0,1-1.93,2.83,4.07,4.07,0,0,1-2.7,1A2.65,2.65,0,0,1,241.25,56.79Zm4.25-6.3a4.1,4.1,0,0,0,.48-2.15c0-1.35-.39-2-1.17-2a1.3,1.3,0,0,0-1,.49,3.5,3.5,0,0,0-.71,1.25,5,5,0,0,0-.26,1.58,2.06,2.06,0,0,0,.3,1.24,1,1,0,0,0,.82.4A1.64,1.64,0,0,0,245.5,50.49Z" fill="#fff"></path><path d="M250,56.32a5.15,5.15,0,0,1-.79-3.21,10.23,10.23,0,0,1,.74-3.93,7.07,7.07,0,0,1,2-2.84,4.33,4.33,0,0,1,2.81-1.05,2.65,2.65,0,0,1,1.68.5,1.57,1.57,0,0,1,.63,1.3,1.65,1.65,0,0,1-.33,1,1,1,0,0,1-.83.42,1,1,0,0,1-.5-.14.87.87,0,0,1-.32-.37.92.92,0,0,0,.4-.38,1.26,1.26,0,0,0,.13-.54,1,1,0,0,0-.21-.63.75.75,0,0,0-.62-.27,1.76,1.76,0,0,0-1.28.69,6.42,6.42,0,0,0-1.13,1.89,11.62,11.62,0,0,0-.72,2.69l.05,0a2.21,2.21,0,0,1,.94-1.12,3.1,3.1,0,0,1,1.55-.38,2.26,2.26,0,0,1,1.77.74,2.9,2.9,0,0,1,.67,2,4.66,4.66,0,0,1-.57,2.24,4.82,4.82,0,0,1-1.54,1.69,3.63,3.63,0,0,1-2.08.65A3,3,0,0,1,250,56.32Zm3.67-.68a3.36,3.36,0,0,0,.69-1.2,4.65,4.65,0,0,0,.28-1.65,1.93,1.93,0,0,0-.35-1.27,1.16,1.16,0,0,0-.93-.41c-1.21,0-1.82.88-1.82,2.64,0,1.55.42,2.33,1.26,2.33A1.23,1.23,0,0,0,253.66,55.64Z" fill="#fff"></path><path d="M259.22,56.79a2.15,2.15,0,0,1-.43-1.42,4.55,4.55,0,0,1,.48-2,11.43,11.43,0,0,1,1.11-1.86q.63-.86,1.62-2c.53-.64.91-1.12,1.14-1.43a1.44,1.44,0,0,0,.34-.78l-.56.15a2.35,2.35,0,0,1-.51.06,3.79,3.79,0,0,1-1-.17l-.41-.1a3.23,3.23,0,0,0-.68-.08,1.75,1.75,0,0,0-.83.19,2.46,2.46,0,0,0-.73.64l-.05,0a2.32,2.32,0,0,1-.21-1,1.66,1.66,0,0,1,.61-1.35,2.41,2.41,0,0,1,1.58-.5,3.71,3.71,0,0,1,.67.06,5,5,0,0,1,.75.18l.86.21a4.54,4.54,0,0,0,.77.06,8.74,8.74,0,0,0,2.15-.33v.06a2.33,2.33,0,0,1-.37,1c-.25.44-.65,1.08-1.19,1.92-.64,1-1.16,1.84-1.58,2.55a16,16,0,0,0-1.08,2.24,6.11,6.11,0,0,0-.46,2.2A4.92,4.92,0,0,0,261.5,57a2.32,2.32,0,0,1-1.11.3A1.46,1.46,0,0,1,259.22,56.79Z" fill="#fff"></path></g><g><g><path d="M117.18,32.22h6.24A6.11,6.11,0,0,1,128,33.93a6.2,6.2,0,0,1,1.69,4.57V52.25A6.2,6.2,0,0,1,128,56.82a6.11,6.11,0,0,1-4.55,1.71h-6.24Zm6,22.55a2.44,2.44,0,0,0,1.81-.64,2.47,2.47,0,0,0,.64-1.8V38.42a2.47,2.47,0,0,0-.64-1.8,2.44,2.44,0,0,0-1.81-.64h-2.06V54.77Z" fill="#fff"></path><path d="M140.41,52.7h-4.29l-.86,5.83h-4l4.36-26.31H141l4.36,26.31h-4.06Zm-.53-3.83-1.61-11-1.62,11Z" fill="#fff"></path><path d="M147.36,32.22h4V54.77h7.11v3.76H147.36Z" fill="#fff"></path><path d="M160.47,32.22h11.32V36h-7.33v7.33h5.82v3.76h-5.82v7.7h7.33v3.76H160.47Z" fill="#fff"></path><path d="M181.93,57.17a6.1,6.1,0,0,1-1.73-4.51V38.08a6.24,6.24,0,1,1,12.48,0v3.09h-3.91V38.08a2.49,2.49,0,0,0-.64-1.8,2.34,2.34,0,0,0-3.3,0,2.49,2.49,0,0,0-.64,1.8V52.66a2.5,2.5,0,0,0,.64,1.81,2.34,2.34,0,0,0,3.3,0,2.5,2.5,0,0,0,.64-1.81V48.91h3.91v3.75a6.38,6.38,0,0,1-10.75,4.51Z" fill="#fff"></path><path d="M195.27,32.22h4V58.53h-4Z" fill="#fff"></path><path d="M201.28,32.22H214V36h-4.36V58.53h-4V36h-4.36Z" fill="#fff"></path><path d="M229.24,32.22l-5.33,15.3v11h-4v-11l-5.33-15.3h4.24l3.08,10,3.16-10Z" fill="#fff"></path></g><g><path d="M122.14,61l-1.58,9.54h-1.94L117,61h1.47l1.09,7.49L120.69,61Z" fill="#fff"></path><path d="M124.37,70a2.27,2.27,0,0,1-.64-1.67V63.14a2.32,2.32,0,1,1,4.64,0v5.21a2.27,2.27,0,0,1-.64,1.67,2.56,2.56,0,0,1-3.36,0Zm2.32-1a1,1,0,0,0,.23-.69V63.14a1,1,0,0,0-.23-.69.87.87,0,0,0-.64-.25.85.85,0,0,0-.64.25.93.93,0,0,0-.23.69v5.21a.93.93,0,0,0,.23.69.81.81,0,0,0,.64.25A.83.83,0,0,0,126.69,69Z" fill="#fff"></path><path d="M130.44,61h1.44v8.17h2.58v1.37h-4Z" fill="#fff"></path><path d="M136.76,70a2.15,2.15,0,0,1-.63-1.61V61h1.45v7.44a.89.89,0,0,0,.22.64.8.8,0,0,0,.58.23.78.78,0,0,0,.58-.23.9.9,0,0,0,.23-.64V61h1.41v7.44A2.18,2.18,0,0,1,140,70a2.13,2.13,0,0,1-1.61.62A2.19,2.19,0,0,1,136.76,70Z" fill="#fff"></path><path d="M142.74,61h1.6l1.84,6.4V61h1.42v9.54h-1.53l-1.91-6.11v6.11h-1.42Z" fill="#fff"></path><path d="M149.33,61h4.6v1.36h-1.58v8.18h-1.44V62.34h-1.58Z" fill="#fff"></path><path d="M155.66,61h4.1v1.36h-2.65V65h2.11v1.36h-2.11v2.79h2.65v1.37h-4.1Z" fill="#fff"></path><path d="M161.59,61h4.1v1.36H163V65h2.12v1.36H163v2.79h2.66v1.37h-4.1Z" fill="#fff"></path><path d="M170.76,70.52l-1-3.94H169v3.94h-1.44V61h2.26a2.19,2.19,0,0,1,1.65.62,2.23,2.23,0,0,1,.61,1.65v1a2.51,2.51,0,0,1-.25,1.16,2,2,0,0,1-.74.79l1.21,4.27Zm-1.8-5.3h.75a.88.88,0,0,0,.66-.24.89.89,0,0,0,.23-.65v-1.1a.8.8,0,0,0-.89-.89H169Z" fill="#fff"></path><path d="M177.4,61h4v1.36h-2.59v2.79h2V66.5h-2v4H177.4Z" fill="#fff"></path><path d="M183.16,61h1.45v9.54h-1.45Z" fill="#fff"></path><path d="M190.05,70.52,189,66.58h-.75v3.94H186.8V61h2.26a2.19,2.19,0,0,1,1.65.62,2.23,2.23,0,0,1,.62,1.65v1a2.51,2.51,0,0,1-.26,1.16,2,2,0,0,1-.74.79l1.21,4.27Zm-1.8-5.3H189a.85.85,0,0,0,.65-.24.89.89,0,0,0,.23-.65v-1.1a.91.91,0,0,0-.23-.66.89.89,0,0,0-.65-.23h-.75Z" fill="#fff"></path><path d="M193.34,61h4.11v1.36h-2.66V65h2.11v1.36h-2.11v2.79h2.66v1.37h-4.11Z" fill="#fff"></path><path d="M202.61,61h2.26a2.19,2.19,0,0,1,1.65.62,2.23,2.23,0,0,1,.62,1.65v5a2.27,2.27,0,0,1-.62,1.66,2.23,2.23,0,0,1-1.65.62h-2.26Zm2.2,8.17a.86.86,0,0,0,.65-.23.89.89,0,0,0,.23-.65v-5a.8.8,0,0,0-.88-.89h-.75v6.81Z" fill="#fff"></path><path d="M209.19,61h4.11v1.36h-2.66V65h2.11v1.36h-2.11v2.79h2.66v1.37h-4.11Z" fill="#fff"></path><path d="M215.12,61h2.26a2.19,2.19,0,0,1,1.65.62,2.23,2.23,0,0,1,.62,1.65v1.12A2.27,2.27,0,0,1,219,66a2.23,2.23,0,0,1-1.65.62h-.81v3.87h-1.45Zm2.2,4.3a.86.86,0,0,0,.65-.23.89.89,0,0,0,.23-.65V63.23a.8.8,0,0,0-.88-.89h-.75v2.94Z" fill="#fff"></path><path d="M221,61h4.6v1.36H224v8.18h-1.44V62.34H221Z" fill="#fff"></path><path d="M226.3,69.09h1.44v1.43H226.3Z" fill="#fff"></path></g></g></g></svg>